<svg width="972" height="971" xmlns="http://www.w3.org/2000/svg" xmlns:xlink="http://www.w3.org/1999/xlink" overflow="hidden"><defs><clipPath id="clip0"><rect x="338" y="121" width="972" height="971"/></clipPath></defs><g clip-path="url(#clip0)" transform="translate(-338 -121)"><path d="M339 606.5C339 338.918 556.142 122 824 122 1091.86 122 1309 338.918 1309 606.5 1309 874.082 1091.86 1091 824 1091 556.142 1091 339 874.082 339 606.5Z" stroke="#004098" stroke-width="1.71893" stroke-miterlimit="8" fill="#FFFFFF" fill-rule="evenodd"/><path d="M824.64 137C564.866 137 355 346.866 355 606.64 355 865.134 564.866 1075 824.64 1075 1083.13 1075 1293 865.134 1293 606.64 1293 346.866 1083.13 137 824.64 137ZM819.521 950.872C632.689 950.872 480.408 798.591 480.408 610.479 480.408 422.367 632.689 271.366 819.521 271.366 1007.63 271.366 1159.91 422.367 1159.91 610.479 1159.91 798.591 1007.63 950.872 819.521 950.872Z" fill="#004098" fill-rule="evenodd"/><path d="M722.906 601 803 661.714 751.384 745.643 601.874 776 520 715.286 573.396 629.571 722.906 601Z" fill="#004098" fill-rule="evenodd"/><path d="M765.981 688.922 858.804 648 907 736.961 855.234 881.078 764.196 922 716 833.039 765.981 688.922Z" fill="#004098" fill-rule="evenodd"/><path d="M862 697.707 872.689 598 974.235 601.561 1074 717.293 1063.31 817 963.546 813.439 862 697.707Z" fill="#004098" fill-rule="evenodd"/><path d="M915.723 527.436C911.406 526.161 906.608 526.48 902.131 528.391 893.176 533.49 890.617 544.96 895.734 553.882 900.851 561.528 911.086 565.352 920.041 560.254 928.996 555.156 931.554 543.686 926.437 536.038 923.879 531.578 920.041 528.71 915.723 527.436ZM1041.91 443 1122 503.289 1068.6 588.402 919.094 615 839 556.485 890.617 471.371Z" fill="#004098" fill-rule="evenodd"/><path d="M787 609C787 590.775 801.327 576 819 576 836.673 576 851 590.775 851 609 851 627.226 836.673 642 819 642 801.327 642 787 627.226 787 609Z" fill="#004098" fill-rule="evenodd"/><path d="M723.531 656.968C731.219 653 742.75 655.645 747.875 664.903 753 672.839 749.156 684.742 741.469 690.032 732.5 694 722.25 691.355 717.125 683.419 712 674.161 714.562 662.258 723.531 656.968Z" fill="#FFFFFF" fill-rule="evenodd"/><path d="M812 719C812 709.059 820.507 701 831 701 841.493 701 850 709.059 850 719 850 728.941 841.493 737 831 737 820.507 737 812 728.941 812 719Z" fill="#FFFFFF" fill-rule="evenodd"/><path d="M911.065 672.032C903.516 666.742 901 654.839 904.774 645.581 909.806 637.645 921.129 635 928.677 638.968 937.484 644.258 940 656.161 936.226 664.097 931.194 673.355 919.871 676 911.065 672.032Z" fill="#FFFFFF" fill-rule="evenodd"/><path d="M494 610C494 429.955 640.179 284 820.5 284 1000.82 284 1147 429.955 1147 610 1147 790.045 1000.82 936 820.5 936 640.179 936 494 790.045 494 610Z" stroke="#004098" stroke-width="1.71893" stroke-miterlimit="8" fill="none" fill-rule="evenodd"/><path d="M491.776 469.957 489.996 469.957 488.216 468.174 486.436 466.391 481.096 464.609 481.096 462.826 479.316 462.826 479.316 461.044 475.757 459.261 473.977 457.478 473.977 457.478 473.977 457.478 472.197 455.696 472.197 455.696 470.417 453.913 470.417 452.13 470.417 452.13 470.417 452.13 470.417 452.13 468.637 450.348 466.857 450.348 465.077 448.565 463.297 448.565 463.297 448.565 461.517 448.565 461.517 445 459.737 445 459.737 443.217 457.957 441.435 459.737 439.652 457.957 439.652 459.737 439.652 457.957 439.652 459.737 434.304 457.957 434.304 459.737 432.522 456.177 428.957 456.177 427.174 456.177 427.174 456.177 425.391 456.177 425.391 456.177 423.609 456.177 423.609 454.398 425.391 454.398 423.609 452.618 428.957 452.618 430.739 452.618 430.739 450.838 434.304 447.278 434.304 447.278 430.739 447.278 430.739 447.278 430.739 445.498 428.957 445.498 425.391 443.718 425.391 445.498 423.609 443.718 423.609 445.498 420.044 443.718 420.044 443.718 418.261 441.938 418.261 441.938 416.478 441.938 416.478 441.938 412.913 441.938 411.131 441.938 411.131 441.938 411.131 441.938 409.348 441.938 407.565 441.938 407.565 441.938 405.783 440.158 405.783 438.378 404 438.378 405.783 436.598 405.783 436.598 407.565 434.819 407.565 433.039 409.348 433.039 411.131 431.259 411.131 427.699 428.957 422.359 425.391 422.359 425.391 420.579 425.391 420.579 425.391 417.019 423.609 415.239 423.609 415.239 423.609 415.239 423.609 411.68 425.391 409.9 427.174 409.9 427.174 408.12 428.957 406.34 428.957 404.56 428.957 402.78 430.739 401 434.304 402.78 434.304 402.78 436.087 404.56 437.87 404.56 439.652 406.34 439.652 406.34 439.652 408.12 439.652 409.9 439.652 409.9 439.652 413.46 439.652 422.359 443.217 427.699 446.783 427.699 448.565 429.479 448.565 427.699 452.13 429.479 452.13 429.479 452.13 429.479 453.913 429.479 455.696 431.259 455.696 431.259 459.261 433.039 461.044 433.039 461.044 433.039 462.826 433.039 464.609 434.819 466.391 434.819 468.174 434.819 468.174 436.598 471.739 436.598 471.739 436.598 475.304 434.819 475.304 433.039 475.304 433.039 475.304 431.259 475.304 429.479 475.304 427.699 475.304 425.919 475.304 418.799 475.304 418.799 477.087 420.579 480.652 422.359 480.652 424.139 482.435 427.699 484.217 440.158 484.217 445.498 484.217 447.278 484.217 449.058 482.435 449.058 480.652 450.838 480.652 450.838 478.87 450.838 475.304 449.058 473.522 449.058 473.522 445.498 471.739 445.498 471.739 441.938 471.739 440.158 469.957 440.158 469.957 441.938 464.609 440.158 464.609 441.938 462.826 440.158 462.826 438.378 461.044 438.378 459.261 440.158 455.696 441.938 455.696 447.278 455.696 447.278 457.478 449.058 457.478 454.398 459.261 452.618 466.391 452.618 466.391 450.838 468.174 450.838 466.391 450.838 468.174 450.838 468.174 450.838 468.174 450.838 469.957 450.838 469.957 454.398 471.739 456.177 469.957 456.177 469.957 457.957 468.174 459.737 466.391 457.957 466.391 457.957 466.391 459.737 462.826 459.737 462.826 463.297 462.826 463.297 462.826 465.077 464.609 465.077 464.609 468.637 464.609 470.417 466.391 479.316 469.957 491.776 471.739 491.776 471.739 491.776 471.739 491.776 469.957ZM639.509 284.565 637.729 284.565 637.729 282.783 635.949 282.783 635.949 279.217 634.169 279.217 634.169 279.217 634.169 277.435 632.389 275.652 630.609 275.652 630.609 275.652 628.829 273.87 628.829 272.087 628.829 270.304 627.049 268.522 625.269 268.522 625.269 266.739 625.269 264.957 623.489 263.174 621.71 263.174 621.71 261.391 619.93 261.391 619.93 257.826 619.93 259.609 619.93 256.044 619.93 256.044 619.93 256.044 618.15 254.261 618.15 252.478 616.37 252.478 616.37 252.478 614.59 250.696 614.59 248.913 612.81 248.913 612.81 247.131 611.03 247.131 611.03 243.565 609.25 243.565 609.25 241.783 607.47 241.783 607.47 238.217 607.47 238.217 605.69 236.435 603.91 234.652 603.91 234.652 602.13 234.652 600.351 231.087 598.571 231.087 595.011 227.522 593.231 225.739 589.671 225.739 584.331 225.739 582.551 227.522 582.551 227.522 582.551 227.522 580.771 227.522 580.771 229.304 578.992 229.304 578.992 229.304 577.212 229.304 577.212 231.087 575.432 234.652 566.532 243.565 561.192 254.261 562.972 257.826 561.192 257.826 561.192 259.609 561.192 259.609 561.192 261.391 561.192 268.522 561.192 275.652 561.192 275.652 561.192 279.217 561.192 279.217 561.192 281 562.972 281 562.972 282.783 564.752 282.783 564.752 284.565 566.532 284.565 566.532 286.348 566.532 286.348 566.532 288.131 570.092 289.913 570.092 291.696 570.092 291.696 571.872 295.261 573.652 297.044 573.652 298.826 575.432 298.826 575.432 302.391 577.212 302.391 578.992 304.174 578.992 304.174 582.551 311.304 584.331 322 582.551 322 582.551 322 580.771 320.217 580.771 320.217 580.771 320.217 578.992 320.217 578.992 318.435 578.992 318.435 578.992 316.652 578.992 316.652 578.992 314.87 578.992 314.87 577.212 313.087 575.432 313.087 575.432 311.304 575.432 311.304 575.432 309.522 575.432 309.522 573.652 305.957 571.872 305.957 571.872 302.391 571.872 302.391 570.092 298.826 570.092 297.044 568.312 293.478 566.532 293.478 566.532 291.696 566.532 291.696 566.532 289.913 564.752 289.913 564.752 288.131 562.972 288.131 562.972 286.348 561.192 286.348 561.192 282.783 559.413 281 559.413 279.217 555.853 277.435 554.073 275.652 554.073 277.435 555.853 277.435 555.853 281 555.853 281 555.853 282.783 557.633 284.565 561.192 289.913 561.192 288.131 561.192 293.478 562.972 293.478 562.972 295.261 564.752 295.261 564.752 297.044 566.532 297.044 566.532 300.609 566.532 300.609 566.532 302.391 568.312 302.391 568.312 304.174 570.092 304.174 570.092 305.957 570.092 305.957 570.092 305.957 570.092 305.957 570.092 307.739 570.092 307.739 573.652 311.304 573.652 311.304 573.652 314.87 575.432 314.87 575.432 318.435 577.212 318.435 577.212 320.217 577.212 320.217 582.551 327.348 584.331 329.131 584.331 330.913 586.111 332.696 587.891 332.696 589.671 332.696 589.671 332.696 589.671 327.348 584.331 305.957 586.111 305.957 587.891 305.957 587.891 307.739 589.671 309.522 591.451 309.522 591.451 311.304 595.011 311.304 595.011 311.304 598.571 311.304 598.571 313.087 600.351 311.304 600.351 313.087 603.91 313.087 603.91 313.087 616.37 313.087 616.37 311.304 619.93 311.304 619.93 311.304 625.269 309.522 625.269 309.522 627.049 307.739 628.829 305.957 628.829 305.957 630.609 304.174 634.169 304.174 634.169 302.391 635.949 302.391 637.729 300.609 639.509 300.609 639.509 300.609 639.509 298.826 641.289 297.044 643.068 297.044 643.068 293.478 643.068 293.478 643.068 291.696 643.068 289.913 641.289 288.131 639.509 284.565ZM812.16 158 810.38 158 810.38 158 808.601 158 808.601 159.783 808.601 159.783 808.601 159.783 806.821 161.565 806.821 163.348 806.821 165.131 805.041 168.696 805.041 168.696 803.261 170.478 801.481 170.478 799.701 174.044 799.701 174.044 794.361 179.391 794.361 179.391 790.801 182.957 789.021 182.957 789.021 186.522 787.242 188.304 787.242 188.304 785.462 188.304 785.462 190.087 785.462 191.87 783.682 191.87 781.902 193.652 780.122 197.218 780.122 199 780.122 202.565 783.682 202.565 783.682 200.783 785.462 200.783 785.462 199 801.481 199 803.261 202.565 803.261 202.565 803.261 202.565 803.261 202.565 803.261 206.131 803.261 209.696 803.261 211.478 803.261 211.478 803.261 211.478 801.481 213.261 799.701 213.261 799.701 215.044 796.141 215.044 794.361 206.131 794.361 206.131 794.361 207.913 790.801 211.478 789.021 211.478 785.462 213.261 785.462 220.391 785.462 227.522 787.242 229.304 789.021 229.304 789.021 227.522 790.801 225.739 790.801 223.957 794.361 223.957 794.361 222.174 794.361 222.174 797.921 220.391 799.701 220.391 801.481 220.391 805.041 231.087 808.601 232.87 808.601 232.87 810.38 232.87 812.16 232.87 812.16 231.087 812.16 229.304 812.16 229.304 808.601 213.261 810.38 213.261 810.38 209.696 813.94 206.131 813.94 204.348 813.94 204.348 815.72 202.565 817.5 202.565 815.72 200.783 815.72 199 813.94 200.783 812.16 202.565 812.16 202.565 808.601 202.565 810.38 200.783 812.16 197.218 812.16 197.218 813.94 195.435 817.5 191.87 817.5 191.87 819.28 188.304 817.5 188.304 817.5 188.304 813.94 188.304 813.94 188.304 812.16 186.522 810.38 186.522 808.601 186.522 806.821 191.87 805.041 191.87 805.041 191.87 803.261 193.652 803.261 193.652 803.261 193.652 803.261 193.652 803.261 193.652 797.921 193.652 790.801 193.652 790.801 191.87 792.581 190.087 792.581 190.087 794.361 190.087 794.361 188.304 794.361 188.304 796.141 186.522 797.921 186.522 797.921 182.957 799.701 182.957 799.701 181.174 801.481 181.174 801.481 179.391 803.261 179.391 803.261 177.609 805.041 177.609 805.041 175.826 808.601 174.044 808.601 174.044 808.601 174.044 808.601 172.261 808.601 170.478 810.38 170.478 810.38 170.478 812.16 170.478 812.16 168.696 813.94 166.913 813.94 166.913 817.5 165.131 817.5 165.131 817.5 165.131 817.5 165.131 817.5 163.348 815.72 161.565 813.94 159.783 812.16 159.783 812.16 158ZM851.318 188.304 853.098 188.304 851.318 182.957 853.098 182.957 853.098 181.174 853.098 181.174 853.098 179.391 853.098 179.391 853.098 175.826 853.098 172.261 853.098 170.478 853.098 168.696 853.098 168.696 853.098 166.913 849.539 165.131 849.539 161.565 847.759 161.565 845.979 163.348 844.199 165.131 842.419 165.131 842.419 165.131 840.639 165.131 838.859 170.478 835.299 170.478 833.519 170.478 831.739 170.478 831.739 168.696 828.18 168.696 828.18 170.478 828.18 172.261 829.959 174.044 829.959 174.044 831.739 179.391 831.739 179.391 829.959 179.391 829.959 179.391 829.959 181.174 829.959 181.174 828.18 181.174 828.18 182.957 826.4 184.739 826.4 190.087 826.4 191.87 828.18 191.87 828.18 195.435 828.18 195.435 828.18 197.218 828.18 197.218 826.4 199 826.4 200.783 821.06 206.131 821.06 206.131 821.06 206.131 821.06 206.131 821.06 207.913 821.06 207.913 821.06 211.478 819.28 215.044 819.28 215.044 821.06 218.609 822.84 218.609 824.62 216.826 826.4 215.044 826.4 215.044 831.739 213.261 831.739 213.261 833.519 211.478 835.299 211.478 835.299 211.478 835.299 211.478 837.079 211.478 837.079 215.044 837.079 215.044 837.079 216.826 837.079 220.391 837.079 222.174 837.079 223.957 837.079 223.957 837.079 229.304 837.079 254.261 838.859 254.261 837.079 252.478 838.859 252.478 838.859 250.696 840.639 247.131 840.639 247.131 840.639 243.565 840.639 243.565 840.639 241.783 842.419 241.783 840.639 240 842.419 238.217 842.419 238.217 842.419 238.217 844.199 234.652 844.199 234.652 844.199 227.522 845.979 227.522 845.979 225.739 847.759 223.957 847.759 222.174 847.759 222.174 849.539 207.913 856.658 204.348 858.438 202.565 858.438 202.565 858.438 200.783 858.438 200.783 858.438 199 858.438 199 856.658 197.218 854.878 197.218 853.098 193.652 853.098 191.87 851.318 190.087 851.318 188.304ZM1022.19 291.696 1022.19 291.696 1022.19 291.696 1018.63 288.131 1018.63 288.131 1016.85 288.131 1016.85 286.348 1015.07 286.348 1013.29 284.565 1011.51 282.783 1011.51 282.783 1011.51 281 1011.51 279.217 1011.51 279.217 1011.51 279.217 1011.51 279.217 1011.51 277.435 1009.73 277.435 1009.73 277.435 1007.95 277.435 1007.95 277.435 1004.39 279.217 1004.39 281 1004.39 282.783 1007.95 286.348 1007.95 288.131 1009.73 286.348 1013.29 293.478 1015.07 293.478 1018.63 293.478 1018.63 293.478 1018.63 295.261 1020.41 295.261 1022.19 297.044 1023.97 297.044 1025.75 298.826 1027.53 298.826 1027.53 300.609 1029.31 302.391 1029.31 302.391 1029.31 302.391 1027.53 304.174 1027.53 305.957 1023.97 307.739 1022.19 307.739 1022.19 307.739 1018.63 307.739 1018.63 305.957 1016.85 305.957 1016.85 305.957 1015.07 305.957 1013.29 302.391 1011.51 302.391 1009.73 302.391 1006.17 297.044 1006.17 297.044 1002.61 293.478 1002.61 298.826 1004.39 300.609 1004.39 300.609 1004.39 302.391 1007.95 305.957 1007.95 305.957 1016.85 313.087 1025.75 311.304 1025.75 311.304 1027.53 311.304 1027.53 309.522 1029.31 309.522 1031.09 307.739 1032.87 307.739 1032.87 305.957 1032.87 305.957 1032.87 305.957 1034.65 305.957 1036.43 305.957 1041.77 311.304 1050.67 313.087 1050.67 309.522 1045.33 307.739 1045.33 305.957 1045.33 304.174 1045.33 304.174 1045.33 302.391 1039.99 302.391 1039.99 302.391 1038.21 302.391 1038.21 300.609 1038.21 300.609 1038.21 298.826 1039.99 297.044 1039.99 297.044 1041.77 297.044 1039.99 293.478 1041.77 293.478 1041.77 289.913 1041.77 289.913 1041.77 288.131 1043.55 286.348 1045.33 286.348 1045.33 284.565 1050.67 284.565 1050.67 284.565 1050.67 284.565 1050.67 282.783 1052.45 282.783 1052.45 281 1054.23 279.217 1054.23 277.435 1054.23 275.652 1054.23 275.652 1054.23 273.87 1054.23 273.87 1050.67 270.304 1048.89 270.304 1047.11 268.522 1045.33 268.522 1043.55 266.739 1039.99 264.957 1038.21 264.957 1036.43 264.957 1034.65 266.739 1032.87 270.304 1036.43 270.304 1036.43 272.087 1036.43 270.304 1041.77 275.652 1041.77 275.652 1041.77 275.652 1041.77 277.435 1043.55 277.435 1043.55 279.217 1043.55 281 1038.21 284.565 1034.65 286.348 1032.87 288.131 1032.87 289.913 1034.65 289.913 1036.43 291.696 1036.43 293.478 1036.43 293.478 1034.65 295.261 1034.65 297.044 1031.09 295.261 1027.53 295.261 1022.19 291.696ZM1059.57 216.826 1059.57 218.609 1059.57 220.391 1057.79 220.391 1054.23 223.957 1050.67 229.304 1050.67 231.087 1048.89 234.652 1050.67 234.652 1050.67 236.435 1050.67 238.217 1052.45 238.217 1054.23 238.217 1057.79 238.217 1061.35 234.652 1063.13 216.826 1059.57 216.826ZM1091.61 243.565 1088.05 243.565 1088.05 243.565 1086.27 243.565 1086.27 241.783 1084.49 243.565 1084.49 241.783 1082.71 241.783 1082.71 241.783 1079.15 240 1079.15 238.217 1077.37 238.217 1077.37 232.87 1073.81 234.652 1073.81 234.652 1073.81 236.435 1072.03 236.435 1072.03 238.217 1072.03 241.783 1072.03 247.131 1073.81 247.131 1073.81 247.131 1082.71 245.348 1091.61 245.348 1091.61 243.565ZM1098.73 248.913 1096.95 247.131 1095.17 245.348 1095.17 247.131 1095.17 247.131 1093.39 247.131 1093.39 248.913 1091.61 248.913 1091.61 250.696 1088.05 252.478 1086.27 252.478 1082.71 252.478 1079.15 252.478 1073.81 252.478 1064.91 252.478 1064.91 252.478 1059.57 252.478 1059.57 250.696 1054.23 250.696 1054.23 250.696 1050.67 248.913 1048.89 250.696 1045.33 250.696 1043.55 248.913 1043.55 245.348 1041.77 245.348 1041.77 245.348 1039.99 245.348 1039.99 245.348 1038.21 247.131 1038.21 247.131 1036.43 245.348 1036.43 245.348 1034.65 245.348 1034.65 245.348 1032.87 247.131 1032.87 247.131 1032.87 247.131 1031.09 248.913 1031.09 248.913 1031.09 252.478 1029.31 252.478 1029.31 252.478 1027.53 254.261 1023.97 259.609 1022.19 261.391 1022.19 264.957 1023.97 264.957 1027.53 264.957 1027.53 264.957 1029.31 263.174 1032.87 263.174 1032.87 261.391 1036.43 261.391 1045.33 256.044 1054.23 254.261 1054.23 256.044 1059.57 256.044 1059.57 256.044 1059.57 256.044 1059.57 256.044 1063.13 256.044 1063.13 256.044 1064.91 256.044 1064.91 257.826 1068.47 257.826 1068.47 259.609 1070.25 261.391 1070.25 261.391 1072.03 261.391 1072.03 264.957 1070.25 266.739 1070.25 270.304 1070.25 272.087 1068.47 275.652 1068.47 275.652 1064.91 277.435 1064.91 279.217 1064.91 279.217 1063.13 277.435 1063.13 277.435 1059.57 277.435 1059.57 281 1063.13 281 1063.13 282.783 1064.91 282.783 1066.69 281 1070.25 279.217 1070.25 279.217 1072.03 279.217 1072.03 279.217 1073.81 279.217 1073.81 275.652 1073.81 275.652 1075.59 272.087 1077.37 270.304 1077.37 264.957 1075.59 257.826 1089.83 257.826 1089.83 259.609 1091.61 259.609 1091.61 259.609 1091.61 261.391 1093.39 261.391 1096.95 261.391 1098.73 256.044 1098.73 256.044 1098.73 250.696 1098.73 250.696 1098.73 248.913ZM1203.74 389.739 1203.74 389.739 1200.18 380.826 1196.62 380.826 1193.06 382.609 1193.06 384.391 1191.28 384.391 1191.28 386.174 1191.28 387.957 1193.06 389.739 1193.06 391.522 1191.28 396.87 1189.5 396.87 1189.5 398.652 1187.72 398.652 1187.72 400.435 1187.72 402.217 1187.72 402.217 1180.6 404 1178.82 400.435 1180.6 400.435 1178.82 398.652 1178.82 395.087 1177.04 393.304 1173.48 393.304 1173.48 393.304 1169.92 393.304 1169.92 393.304 1168.14 393.304 1164.58 393.304 1164.58 393.304 1161.02 393.304 1161.02 393.304 1157.46 395.087 1155.68 395.087 1152.12 396.87 1152.12 395.087 1146.78 398.652 1141.44 398.652 1141.44 398.652 1139.66 398.652 1137.88 400.435 1136.1 402.217 1136.1 404 1134.32 404 1134.32 407.565 1132.54 407.565 1132.54 411.131 1130.77 411.131 1130.77 414.696 1128.99 416.478 1132.54 421.826 1137.88 420.044 1137.88 420.044 1145 416.478 1153.9 416.478 1159.24 416.478 1161.02 414.696 1162.8 412.913 1162.8 411.131 1164.58 411.131 1164.58 411.131 1166.36 411.131 1166.36 409.348 1168.14 409.348 1168.14 407.565 1173.48 405.783 1173.48 402.217 1175.26 402.217 1175.26 402.217 1175.26 400.435 1177.04 402.217 1177.04 402.217 1177.04 402.217 1175.26 402.217 1177.04 405.783 1175.26 407.565 1173.48 409.348 1175.26 411.131 1177.04 412.913 1178.82 414.696 1178.82 412.913 1180.6 414.696 1182.38 412.913 1182.38 414.696 1182.38 414.696 1184.16 412.913 1187.72 411.131 1193.06 407.565 1193.06 407.565 1193.06 405.783 1193.06 402.217 1194.84 402.217 1196.62 398.652 1201.96 396.87 1201.96 398.652 1201.96 396.87 1203.74 396.87 1205.52 395.087 1205.52 393.304 1205.52 393.304 1205.52 391.522 1205.52 389.739 1203.74 389.739ZM1226.88 439.652 1226.88 439.652 1225.1 439.652 1225.1 439.652 1225.1 436.087 1223.32 436.087 1221.54 434.304 1219.76 434.304 1219.76 432.522 1217.98 432.522 1217.98 430.739 1214.42 430.739 1214.42 428.957 1212.64 428.957 1210.86 425.391 1209.08 425.391 1209.08 425.391 1207.3 425.391 1205.52 423.609 1205.52 423.609 1203.74 421.826 1201.96 420.044 1205.52 420.044 1205.52 420.044 1207.3 420.044 1207.3 420.044 1210.86 416.478 1210.86 414.696 1203.74 412.913 1201.96 414.696 1201.96 412.913 1200.18 414.696 1200.18 412.913 1196.62 414.696 1196.62 412.913 1193.06 414.696 1193.06 414.696 1187.72 416.478 1185.94 420.044 1184.16 420.044 1184.16 421.826 1185.94 425.391 1187.72 425.391 1187.72 427.174 1187.72 425.391 1189.5 427.174 1191.28 427.174 1193.06 425.391 1193.06 425.391 1194.84 425.391 1194.84 425.391 1196.62 427.174 1198.4 427.174 1200.18 427.174 1200.18 428.957 1205.52 430.739 1207.3 430.739 1209.08 432.522 1210.86 434.304 1212.64 434.304 1212.64 434.304 1214.42 434.304 1216.2 437.87 1217.98 437.87 1219.76 439.652 1219.76 439.652 1221.54 441.435 1223.32 443.217 1221.54 443.217 1221.54 445 1219.76 446.783 1217.98 446.783 1214.42 448.565 1214.42 446.783 1212.64 446.783 1210.86 445 1209.08 443.217 1205.52 443.217 1205.52 441.435 1203.74 441.435 1201.96 439.652 1200.18 439.652 1198.4 436.087 1198.4 434.304 1196.62 434.304 1196.62 432.522 1196.62 430.739 1196.62 430.739 1194.84 427.174 1193.06 427.174 1193.06 430.739 1193.06 434.304 1189.5 434.304 1185.94 432.522 1182.38 432.522 1182.38 432.522 1180.6 432.522 1178.82 434.304 1177.04 434.304 1177.04 437.87 1173.48 439.652 1171.7 437.87 1169.92 437.87 1164.58 437.87 1155.68 439.652 1157.46 439.652 1155.68 439.652 1157.46 441.435 1157.46 441.435 1159.24 443.217 1161.02 445 1166.36 448.565 1173.48 450.348 1175.26 450.348 1178.82 450.348 1178.82 452.13 1173.48 452.13 1173.48 452.13 1169.92 452.13 1164.58 453.913 1164.58 455.696 1164.58 455.696 1162.8 457.478 1162.8 457.478 1161.02 457.478 1161.02 457.478 1161.02 459.261 1161.02 459.261 1159.24 461.044 1159.24 461.044 1157.46 461.044 1155.68 462.826 1155.68 462.826 1155.68 462.826 1157.46 466.391 1157.46 466.391 1159.24 466.391 1161.02 468.174 1161.02 469.957 1162.8 469.957 1164.58 471.739 1164.58 471.739 1168.14 480.652 1168.14 480.652 1169.92 486 1173.48 486 1173.48 486 1173.48 484.217 1175.26 484.217 1175.26 480.652 1175.26 478.87 1178.82 475.304 1178.82 475.304 1180.6 475.304 1180.6 473.522 1180.6 471.739 1180.6 471.739 1178.82 471.739 1178.82 471.739 1173.48 473.522 1169.92 471.739 1169.92 471.739 1168.14 466.391 1168.14 466.391 1164.58 462.826 1166.36 461.044 1175.26 457.478 1175.26 457.478 1178.82 455.696 1178.82 457.478 1182.38 455.696 1182.38 453.913 1182.38 452.13 1182.38 452.13 1184.16 452.13 1185.94 452.13 1187.72 450.348 1189.5 452.13 1191.28 452.13 1191.28 452.13 1191.28 452.13 1193.06 452.13 1193.06 452.13 1196.62 453.913 1196.62 453.913 1196.62 452.13 1196.62 452.13 1198.4 452.13 1198.4 450.348 1196.62 448.565 1194.84 448.565 1193.06 445 1191.28 443.217 1191.28 443.217 1189.5 443.217 1187.72 443.217 1187.72 441.435 1185.94 441.435 1184.16 439.652 1184.16 439.652 1182.38 436.087 1182.38 434.304 1185.94 434.304 1187.72 436.087 1189.5 436.087 1189.5 437.87 1193.06 437.87 1196.62 445 1200.18 445 1201.96 445 1203.74 446.783 1205.52 446.783 1205.52 448.565 1207.3 448.565 1209.08 448.565 1210.86 450.348 1212.64 452.13 1214.42 452.13 1214.42 452.13 1217.98 452.13 1219.76 452.13 1221.54 452.13 1225.1 450.348 1226.88 448.565 1226.88 448.565 1226.88 448.565 1228.66 448.565 1228.66 446.783 1228.66 446.783 1228.66 445 1228.66 443.217 1228.66 441.435 1226.88 439.652ZM1228.66 411.131 1228.66 414.696 1228.66 416.478 1225.1 418.261 1226.88 418.261 1225.1 418.261 1225.1 418.261 1223.32 420.044 1221.54 420.044 1221.54 420.044 1219.76 420.044 1219.76 420.044 1219.76 423.609 1221.54 423.609 1225.1 423.609 1225.1 425.391 1226.88 427.174 1228.66 428.957 1230.44 428.957 1232.22 428.957 1234 427.174 1234 425.391 1234 425.391 1234 423.609 1234 421.826 1234 421.826 1232.22 416.478 1234 416.478 1232.22 411.131 1230.44 411.131 1228.66 411.131ZM837.079 204.348 837.079 204.348 835.299 204.348 835.299 204.348 835.299 204.348 833.519 204.348 833.519 204.348 831.739 206.131 829.959 206.131 828.18 207.913 828.18 206.131 829.959 204.348 831.739 202.565 831.739 200.783 831.739 199 835.299 197.218 837.079 191.87 837.079 190.087 835.299 188.304 835.299 186.522 835.299 184.739 835.299 181.174 837.079 179.391 840.639 179.391 840.639 188.304 838.859 197.218 838.859 199 838.859 200.783 838.859 202.565 837.079 202.565 837.079 204.348ZM607.47 286.348 607.47 289.913 607.47 293.478 607.47 295.261 605.69 297.044 603.91 297.044 602.13 297.044 603.91 293.478 603.91 288.131 605.69 288.131 607.47 286.348 607.47 286.348ZM634.169 293.478 632.389 297.044 632.389 297.044 630.609 297.044 628.829 300.609 627.049 300.609 627.049 302.391 625.269 302.391 621.71 305.957 614.59 309.522 603.91 311.304 603.91 309.522 602.13 305.957 607.47 302.391 607.47 302.391 609.25 298.826 611.03 297.044 614.59 297.044 616.37 295.261 616.37 293.478 616.37 293.478 616.37 291.696 614.59 288.131 612.81 286.348 612.81 284.565 611.03 284.565 611.03 284.565 611.03 284.565 611.03 282.783 611.03 282.783 611.03 281 609.25 281 609.25 275.652 611.03 275.652 611.03 275.652 611.03 273.87 611.03 273.87 612.81 272.087 612.81 270.304 612.81 268.522 612.81 264.957 611.03 264.957 611.03 264.957 611.03 264.957 607.47 264.957 607.47 264.957 605.69 264.957 603.91 266.739 603.91 268.522 602.13 268.522 603.91 270.304 603.91 270.304 602.13 272.087 602.13 272.087 603.91 279.217 602.13 281 602.13 282.783 602.13 284.565 602.13 284.565 600.351 284.565 600.351 284.565 598.571 284.565 598.571 284.565 598.571 282.783 598.571 281 598.571 279.217 598.571 275.652 598.571 275.652 598.571 272.087 596.791 272.087 596.791 270.304 595.011 270.304 593.231 264.957 587.891 264.957 587.891 264.957 587.891 264.957 586.111 261.391 584.331 261.391 584.331 257.826 584.331 256.044 582.551 256.044 578.992 257.826 578.992 259.609 578.992 259.609 568.312 257.826 568.312 252.478 568.312 252.478 568.312 252.478 570.092 252.478 570.092 248.913 570.092 248.913 570.092 247.131 571.872 245.348 571.872 243.565 573.652 243.565 573.652 241.783 575.432 240 575.432 238.217 577.212 238.217 578.992 232.87 584.331 232.87 584.331 231.087 591.451 231.087 603.91 240 603.91 241.783 607.47 243.565 607.47 243.565 607.47 245.348 607.47 247.131 609.25 247.131 609.25 247.131 611.03 248.913 611.03 250.696 611.03 250.696 611.03 252.478 611.03 252.478 611.03 252.478 614.59 256.044 614.59 256.044 616.37 256.044 616.37 259.609 616.37 261.391 618.15 263.174 619.93 263.174 619.93 268.522 623.489 268.522 625.269 272.087 625.269 273.87 627.049 275.652 628.829 275.652 628.829 277.435 628.829 277.435 628.829 279.217 628.829 279.217 630.609 281 632.389 281 632.389 284.565 634.169 284.565 634.169 288.131 635.949 291.696 635.949 291.696 635.949 293.478 635.949 293.478 634.169 293.478ZM596.791 252.478 595.011 252.478 593.231 250.696 586.111 250.696 587.891 261.391 596.791 261.391 598.571 259.609 598.571 257.826 598.571 257.826 598.571 256.044 598.571 254.261 598.571 252.478 596.791 252.478ZM593.231 275.652 593.231 275.652 593.231 275.652 593.231 279.217 593.231 281 593.231 282.783 593.231 282.783 593.231 282.783 591.451 284.565 589.671 282.783 587.891 282.783 587.891 281 587.891 279.217 587.891 279.217 587.891 277.435 589.671 273.87 591.451 273.87 593.231 275.652ZM584.331 270.304 584.331 266.739 584.331 266.739 587.891 268.522 587.891 268.522 586.111 268.522 586.111 270.304 584.331 270.304 584.331 270.304ZM587.891 291.696 587.891 291.696 586.111 293.478 584.331 289.913 584.331 288.131 587.891 288.131 587.891 288.131 587.891 291.696ZM570.092 264.957 570.092 264.957 568.312 264.957 568.312 270.304 568.312 270.304 568.312 272.087 571.872 272.087 575.432 275.652 575.432 275.652 575.432 275.652 575.432 275.652 577.212 275.652 577.212 277.435 577.212 279.217 575.432 279.217 575.432 281 575.432 282.783 575.432 284.565 577.212 284.565 577.212 284.565 580.771 286.348 580.771 288.131 582.551 288.131 582.551 288.131 584.331 289.913 582.551 291.696 582.551 293.478 582.551 295.261 582.551 297.044 584.331 297.044 584.331 297.044 584.331 297.044 584.331 297.044 584.331 298.826 593.231 297.044 593.231 297.044 593.231 293.478 593.231 293.478 593.231 289.913 596.791 289.913 598.571 288.131 598.571 291.696 598.571 293.478 598.571 297.044 598.571 298.826 598.571 298.826 598.571 300.609 596.791 300.609 598.571 307.739 595.011 307.739 593.231 307.739 593.231 305.957 587.891 305.957 587.891 305.957 587.891 305.957 586.111 302.391 584.331 302.391 578.992 297.044 575.432 295.261 575.432 293.478 570.092 288.131 570.092 288.131 570.092 288.131 568.312 286.348 566.532 286.348 566.532 273.87 566.532 273.87 566.532 270.304 566.532 270.304 566.532 263.174 566.532 263.174 566.532 263.174 568.312 264.957 568.312 264.957 570.092 264.957ZM441.938 434.304 434.819 432.522 434.819 430.739 433.039 430.739 433.039 420.044 434.819 420.044 434.819 420.044 436.598 420.044 436.598 420.044 438.378 421.826 438.378 423.609 438.378 425.391 440.158 425.391 440.158 427.174 441.938 430.739 441.938 430.739 441.938 434.304 441.938 434.304 441.938 434.304Z" fill="#FFFFFF" fill-rule="evenodd"/><path d="M808.889 483.444C799.071 483.444 791.111 491.802 791.111 502.111 791.111 512.421 799.071 520.778 808.889 520.778 818.707 520.778 826.667 512.421 826.667 502.111 826.667 491.802 818.707 483.444 808.889 483.444ZM878.222 295 928 383.889 876.444 527.889 785.778 567 736 479.889 785.778 335.889Z" fill="#004098" fill-rule="evenodd"/><path d="M778 521.293 767.361 621 666.294 617.439 567 503.488 579.412 402 678.706 405.561 778 521.293Z" fill="#004098" fill-rule="evenodd"/><path d="M729.469 549.125C738.438 554.25 741 565.781 735.875 573.469 732.031 582.438 720.5 585 711.531 579.875 703.844 576.031 700 564.5 705.125 555.531 710.25 547.844 721.781 544 729.469 549.125Z" fill="#FFFFFF" fill-rule="evenodd"/><path d="M478 763.25C460.956 768.25 460.956 768.25 460.956 768.25 459.645 768.25 459.645 768.25 459.645 768.25 464.889 765.75 467.511 763.25 468.822 759.5 471.445 757 471.445 754.5 470.133 752 470.133 749.5 467.511 748.25 464.889 747 463.578 745.75 459.645 745.75 457.022 745.75 453.089 745.75 449.156 745.75 443.911 748.25 439.978 749.5 436.045 750.75 432.111 753.25 428.178 754.5 426.867 757 425.556 759.5 424.244 762 422.933 764.5 424.244 767 425.556 768.25 426.867 770.75 428.178 772 430.8 773.25 433.422 774.5 437.356 775.75 433.422 777 433.422 777 433.422 777 429.489 775.75 426.867 774.5 425.556 773.25 422.933 770.75 421.622 768.25 420.311 765.75 419 762 419 758.25 420.311 755.75 421.622 752 422.933 748.25 426.867 745.75 430.8 742 434.733 740.75 438.667 739.5 443.911 737 449.156 737 453.089 737 458.333 737 462.267 738.25 466.2 740.75 470.133 743.25 471.445 745.75 472.756 749.5 474.067 752 474.067 754.5 474.067 757 472.756 759.5 472.756 760.75 472.756 760.75 474.067 762 474.067 762 474.067 762 475.378 762 476.689 762 478 762L478 763.25Z" fill="#FFFFFF" fill-rule="evenodd"/><path d="M458.765 790.851C443.235 797.128 443.235 797.128 443.235 797.128 440.647 798.383 439.353 799.638 439.353 799.638 438.059 800.894 438.059 800.894 438.059 802.149 438.059 802.149 438.059 803.404 438.059 804.66 439.353 805.915 439.353 805.915 439.353 805.915 438.059 805.915 438.059 805.915 438.059 805.915 429 788.34 429 788.34 429 788.34 430.294 788.34 430.294 788.34 430.294 788.34 431.588 789.596 431.588 789.596 431.588 789.596 431.588 790.851 431.588 790.851 432.882 790.851 432.882 792.106 434.176 792.106 435.471 792.106 435.471 790.851 436.765 790.851 439.353 789.596 470.412 774.532 470.412 774.532 470.412 774.532 473 774.532 474.294 773.276 475.588 773.276 475.588 772.021 475.588 772.021 475.588 770.766 475.588 769.51 475.588 769.51 475.588 768.255 475.588 767 475.588 767 475.588 767 476.882 767 476.882 767 476.882 767 484.647 783.319 484.647 783.319 484.647 783.319 483.353 784.574 483.353 784.574 483.353 784.574 483.353 783.319 483.353 783.319 483.353 783.319 482.059 782.064 482.059 782.064 480.765 780.808 480.765 780.808 479.471 780.808 479.471 780.808 478.176 780.808 476.882 782.064 474.294 783.319 461.353 789.596 461.353 789.596 461.353 789.596 466.529 800.894 466.529 800.894 466.529 800.894 480.765 794.617 480.765 794.617 480.765 794.617 483.353 793.362 484.647 793.362 484.647 792.106 485.941 792.106 485.941 790.851 485.941 790.851 485.941 789.596 485.941 788.34 485.941 788.34 484.647 787.085 484.647 787.085 484.647 787.085 485.941 785.83 485.941 785.83 485.941 785.83 495 803.404 495 803.404 495 803.404 493.706 804.66 493.706 804.66 493.706 804.66 492.412 803.404 492.412 803.404 492.412 803.404 492.412 802.149 492.412 800.894 491.118 800.894 491.118 800.894 489.824 800.894 488.529 800.894 488.529 800.894 487.235 800.894 484.647 802.149 453.588 817.213 453.588 817.213 453.588 817.213 451 818.468 449.706 819.723 448.412 819.723 448.412 819.723 448.412 820.979 448.412 820.979 447.118 822.234 448.412 823.489 448.412 823.489 448.412 824.745 448.412 824.745 448.412 824.745 447.118 826 447.118 826 447.118 826 439.353 808.425 439.353 808.425 439.353 808.425 440.647 808.425 440.647 808.425 440.647 808.425 440.647 808.425 440.647 808.425 440.647 808.425 440.647 809.681 441.941 810.936 443.235 810.936 443.235 810.936 444.529 810.936 444.529 810.936 445.824 810.936 447.118 810.936 449.706 809.681 463.941 802.149 463.941 802.149 463.941 802.149L458.765 790.851Z" fill="#FFFFFF" fill-rule="evenodd"/><path d="M462.786 847C461.476 847 461.476 847 461.476 847 451 829.794 451 829.794 451 829.794 452.31 829.794 452.31 829.794 452.31 829.794 452.31 831.118 452.31 831.118 452.31 831.118 453.619 831.118 453.619 832.441 454.929 832.441 454.929 832.441 456.238 832.441 457.548 832.441 457.548 832.441 458.857 831.118 461.476 829.794 491.595 811.265 491.595 811.265 491.595 811.265 492.905 809.941 494.214 808.618 495.524 808.618 495.524 808.618 495.524 807.294 495.524 807.294 496.833 805.971 495.524 804.647 495.524 804.647 494.214 803.323 494.214 803.323 494.214 803.323 495.524 802 495.524 802 495.524 802 506 819.206 506 819.206 506 819.206 504.69 820.529 504.69 820.529 504.69 820.529 504.69 819.206 504.69 819.206 504.69 819.206 503.381 817.882 503.381 817.882 502.071 817.882 502.071 816.559 500.762 816.559 500.762 817.882 499.452 817.882 498.143 817.882 495.524 819.206 466.714 837.735 466.714 837.735 466.714 837.735 464.095 839.059 462.786 840.382 461.476 840.382 461.476 841.706 461.476 841.706 461.476 843.029 461.476 844.353 461.476 844.353 461.476 845.676L462.786 847Z" fill="#FFFFFF" fill-rule="evenodd"/><path d="M513.64 832.261C499.56 866.891 499.56 866.891 499.56 866.891 517.48 852.783 517.48 852.783 517.48 852.783 520.04 851.5 521.32 850.217 521.32 848.935 522.6 846.37 522.6 845.087 521.32 843.804 522.6 842.522 522.6 842.522 522.6 842.522 529 852.783 529 852.783 529 852.783 527.72 854.065 527.72 854.065 527.72 854.065 527.72 852.783 526.44 851.5 525.16 851.5 525.16 851.5 523.88 851.5 522.6 851.5 522.6 852.783 520.04 852.783 518.76 855.348 484.2 881 484.2 881 484.2 881 482.92 879.717 482.92 879.717 482.92 879.717 503.4 833.543 503.4 833.543 503.4 833.543 476.52 852.783 476.52 852.783 476.52 852.783 473.96 855.348 472.68 856.63 472.68 857.913 472.68 859.196 472.68 860.478 472.68 861.761 473.96 863.043 473.96 863.043 473.96 863.043 472.68 863.043 472.68 863.043 472.68 863.043 465 852.783 465 852.783 465 852.783 466.28 851.5 466.28 851.5 466.28 851.5 467.56 852.783 468.84 854.065 470.12 854.065 471.4 854.065 472.68 852.783 475.24 851.5 504.68 829.696 504.68 829.696 504.68 829.696 504.68 828.413 504.68 828.413 504.68 828.413 505.96 827.13 505.96 825.848 505.96 824.565 505.96 824.565 505.96 823.282 504.68 822 505.96 822 505.96 822 505.96 822L513.64 832.261Z" fill="#FFFFFF" fill-rule="evenodd"/><path d="M536.13 864.826C521 878.935 521 878.935 521 878.935 522.261 880.217 522.261 880.217 522.261 880.217 523.522 881.5 524.783 882.783 527.304 881.5 529.826 881.5 532.348 878.935 536.13 876.37 536.13 877.652 536.13 877.652 536.13 877.652 517.217 895.609 517.217 895.609 517.217 895.609 515.956 895.609 515.956 895.609 515.956 895.609 518.478 893.044 519.739 891.761 519.739 889.196 521 887.913 521 886.63 521 885.348 521 884.065 521 882.783 519.739 881.5 508.391 891.761 508.391 891.761 508.391 891.761 507.13 893.044 505.87 894.326 504.609 895.609 504.609 895.609 504.609 895.609 504.609 896.891 504.609 896.891 504.609 898.174 505.87 899.457 507.13 900.739 507.13 900.739 507.13 900.739 509.652 903.304 512.174 904.587 514.696 904.587 518.478 904.587 522.261 903.304 526.043 900.739 526.043 902.022 526.043 902.022 526.043 902.022 513.435 911 513.435 911 513.435 911 492 887.913 492 887.913 492 887.913 493.261 886.63 493.261 886.63 493.261 886.63 493.261 887.913 493.261 887.913 493.261 887.913 494.522 887.913 494.522 889.196 495.783 889.196 497.043 889.196 497.043 889.196 498.304 889.196 498.304 887.913 499.565 887.913 502.087 885.348 526.043 862.261 526.043 862.261 526.043 862.261 528.565 860.978 528.565 859.696 529.826 859.696 529.826 858.413 529.826 858.413 529.826 857.131 529.826 855.848 529.826 855.848 528.565 854.565 528.565 853.283 528.565 853.283 528.565 853.283 529.826 852 529.826 852 529.826 852 550 875.087 550 875.087 550 875.087 538.652 886.63 538.652 886.63 538.652 886.63 538.652 885.348 538.652 885.348 538.652 885.348 541.174 882.783 542.435 880.217 542.435 877.652 543.696 876.37 543.696 873.804 542.435 872.522 542.435 871.239 541.174 869.957 539.913 867.391L536.13 864.826Z" fill="#FFFFFF" fill-rule="evenodd"/><path d="M574 895.432C562.429 908.135 562.429 908.135 562.429 908.135 562.429 906.865 562.429 906.865 562.429 906.865 565 903.054 566.286 900.514 566.286 896.703 566.286 894.162 565 891.622 563.714 889.081 562.429 887.811 561.143 887.811 558.572 887.811 557.286 887.811 556 889.081 554.714 890.351 553.429 891.622 553.429 891.622 553.429 892.892 552.143 894.162 552.143 895.432 552.143 897.973 552.143 899.243 553.429 900.514 553.429 904.324 554.714 909.405 556 914.486 554.714 917.027 554.714 919.568 552.143 922.108 550.857 924.649 547 928.459 544.429 929.73 540.572 931 536.714 931 532.857 931 530.286 928.459 529 927.189 529 925.919 527.714 925.919 527.714 924.649 526.429 923.378 526.429 922.108 526.429 920.838 525.143 919.568 525.143 919.568 525.143 919.568 523.857 919.568 523.857 919.568 522.572 919.568 521.286 919.568 521.286 919.568 520 919.568 520 919.568 520 919.568 532.857 904.324 532.857 904.324 532.857 904.324 534.143 905.595 534.143 905.595 534.143 905.595 531.572 910.676 529 914.486 529 918.297 529 922.108 530.286 924.649 531.572 925.919 532.857 927.189 535.429 928.459 536.714 927.189 539.286 927.189 540.572 925.919 541.857 924.649 543.143 923.378 543.143 923.378 544.429 922.108 544.429 920.838 544.429 919.568 544.429 918.297 544.429 917.027 544.429 914.486 543.143 911.946 541.857 908.135 541.857 904.324 541.857 901.784 541.857 900.514 541.857 897.973 543.143 895.432 544.429 894.162 544.429 891.622 547 890.351 549.572 887.811 552.143 885.27 556 885.27 559.857 884 562.429 885.27 565 886.541 566.286 887.811 567.572 889.081 567.572 890.351 567.572 890.351 568.857 891.622 568.857 892.892 568.857 894.162 568.857 895.432 570.143 895.432 570.143 896.703 570.143 896.703 571.429 896.703 571.429 895.432 572.714 895.432 574 894.162L574 895.432Z" fill="#FFFFFF" fill-rule="evenodd"/><path d="M586.454 909.213C573.5 927.085 573.5 927.085 573.5 927.085 573.5 927.085 573.5 927.085 573.5 927.085 576.091 928.362 577.386 928.362 579.977 927.085 581.273 927.085 583.864 924.532 586.454 921.979 587.75 921.979 587.75 921.979 587.75 921.979 570.909 943.681 570.909 943.681 570.909 943.681 570.909 943.681 570.909 943.681 570.909 943.681 572.204 941.128 573.5 938.574 573.5 936.021 574.795 934.745 574.795 933.468 573.5 932.191 573.5 930.915 572.204 929.638 570.909 928.362 561.841 939.851 561.841 939.851 561.841 939.851 560.545 942.404 559.25 943.681 559.25 944.957 559.25 944.957 559.25 946.234 559.25 946.234 559.25 947.511 560.545 947.511 560.545 948.787 563.136 950.064 563.136 950.064 563.136 950.064 565.727 951.34 568.318 952.617 570.909 952.617 574.795 951.34 577.386 950.064 581.273 946.234 582.568 947.511 582.568 947.511 582.568 947.511 570.909 959 570.909 959 570.909 959 545 939.851 545 939.851 545 939.851 545 938.574 545 938.574 545 938.574 546.295 939.851 546.295 939.851 546.295 939.851 547.591 939.851 547.591 941.128 548.886 941.128 550.182 941.128 550.182 939.851 551.477 939.851 551.477 939.851 552.773 938.574 554.068 936.021 574.795 909.213 574.795 909.213 574.795 909.213 576.091 906.659 577.386 905.383 577.386 905.383 577.386 904.106 578.682 904.106 578.682 902.83 577.386 901.553 577.386 901.553 576.091 900.276 574.795 900.276 574.795 900.276 574.795 900.276 576.091 899 576.091 899 576.091 899 602 916.872 602 916.872 602 916.872 591.636 929.638 591.636 929.638 591.636 929.638 591.636 929.638 591.636 929.638 591.636 929.638 592.932 925.808 594.227 923.255 594.227 920.702 594.227 919.425 594.227 918.149 592.932 915.596 592.932 915.596 591.636 913.042 589.045 911.766L586.454 909.213Z" fill="#FFFFFF" fill-rule="evenodd"/><path d="M627.364 977.273C615.636 970.795 615.636 970.795 615.636 970.795 611.727 974.682 611.727 974.682 611.727 974.682 610.424 975.977 610.424 977.273 609.121 977.273 609.121 978.568 609.121 979.864 609.121 981.159 609.121 981.159 610.424 982.454 611.727 983.75 611.727 985.045 611.727 985.045 611.727 985.045 600 978.568 600 978.568 600 978.568 601.303 977.273 601.303 977.273 601.303 977.273 602.606 978.568 603.909 978.568 605.212 977.273 606.515 975.977 607.818 974.682 611.727 972.091 643 941 643 941 643 941 643 941 643 941 643 941 635.182 986.341 635.182 986.341 635.182 986.341 635.182 990.227 635.182 992.818 635.182 994.114 635.182 995.409 635.182 995.409 636.485 996.704 636.485 998 636.485 998 636.485 998 619.545 988.932 619.545 988.932 619.545 988.932 620.848 987.636 620.848 987.636 620.848 987.636 620.848 988.932 620.848 988.932 620.848 988.932 622.151 988.932 623.455 988.932 623.455 988.932 624.758 988.932 624.758 988.932 626.061 987.636 626.061 987.636 626.061 986.341 626.061 986.341 626.061 986.341 626.061 985.045 626.061 983.75L627.364 977.273ZM628.667 973.386C631.273 955.25 631.273 955.25 631.273 955.25 618.242 968.204 618.242 968.204 618.242 968.204L628.667 973.386Z" fill="#FFFFFF" fill-rule="evenodd"/><path d="M693 964.714C686.75 981.429 686.75 981.429 686.75 981.429 685.5 981.429 685.5 981.429 685.5 981.429 686.75 976.286 686.75 972.429 685.5 968.571 684.25 966 683 963.429 680.5 962.143 678 962.143 675.5 962.143 673 963.429 670.5 963.429 669.25 966 666.75 968.571 664.25 971.143 663 975 660.5 978.857 659.25 984 658 987.857 656.75 991.714 656.75 995.571 656.75 999.429 658 1000.71 658 1003.29 660.5 1005.86 663 1007.14 665.5 1007.14 666.75 1007.14 669.25 1007.14 671.75 1007.14 674.25 1004.57 678 1002 676.75 1007.14 676.75 1007.14 676.75 1007.14 673 1008.43 670.5 1009.71 668 1011 665.5 1011 663 1011 660.5 1009.71 656.75 1008.43 653 1005.86 651.75 1002 649.25 999.429 648 995.571 648 990.429 648 986.571 649.25 981.429 650.5 977.571 653 972.429 655.5 968.571 659.25 964.714 661.75 962.143 665.5 959.571 669.25 958.286 673 957 676.75 957 679.25 958.286 681.75 959.571 684.25 962.143 686.75 964.714 688 966 688 966 689.25 966 689.25 967.286 690.5 967.286 690.5 966 691.75 966 691.75 964.714 693 963.429L693 964.714Z" fill="#FFFFFF" fill-rule="evenodd"/><path d="M708 1008.25C694.667 1004.5 694.667 1004.5 694.667 1004.5 690.667 1009.5 690.667 1009.5 690.667 1009.5 690.667 1010.75 689.333 1012 689.333 1013.25 689.333 1014.5 689.333 1015.75 689.333 1015.75 689.333 1017 690.667 1017 693.333 1018.25 692 1019.5 692 1019.5 692 1019.5 680 1015.75 680 1015.75 680 1015.75 680 1014.5 680 1014.5 680 1014.5 681.333 1014.5 682.667 1014.5 684 1013.25 685.333 1012 688 1010.75 689.333 1007 716 972 716 972 716 972 716 972 716 972 716 972 717.333 1015.75 717.333 1015.75 717.333 1015.75 717.333 1019.5 717.333 1022 718.667 1023.25 718.667 1024.5 718.667 1024.5 720 1025.75 720 1027 720 1027 720 1027 701.333 1022 701.333 1022 701.333 1022 702.667 1020.75 702.667 1020.75 702.667 1020.75 702.667 1020.75 702.667 1020.75 702.667 1020.75 704 1020.75 705.333 1020.75 706.667 1020.75 706.667 1020.75 706.667 1019.5 706.667 1019.5 708 1018.25 708 1018.25 708 1018.25 708 1018.25 708 1017 708 1014.5L708 1008.25ZM706.667 1005.75C706.667 987 706.667 987 706.667 987 696 1002 696 1002 696 1002L706.667 1005.75Z" fill="#FFFFFF" fill-rule="evenodd"/><path d="M723 1028.16C724.323 1026.88 724.323 1026.88 724.323 1026.88 725.647 1026.88 725.647 1026.88 725.647 1026.88 725.647 1026.88 726.97 1026.88 728.294 1026.88 728.294 1025.6 729.618 1025.6 729.618 1024.33 729.618 1024.33 729.618 1023.05 730.941 1020.49 737.559 985.953 737.559 985.953 737.559 985.953 737.559 983.395 737.559 982.116 737.559 980.837 737.559 980.837 737.559 979.558 736.235 979.558 736.235 979.558 734.912 978.279 734.912 978.279 733.588 978.279 733.588 978.279 733.588 978.279 733.588 977 733.588 977 733.588 977 750.794 979.558 750.794 979.558 750.794 979.558 754.765 980.837 758.735 982.116 761.382 984.674 764.029 987.232 765.353 989.791 766.676 994.907 768 998.744 768 1003.86 766.676 1008.98 766.676 1012.81 765.353 1016.65 764.029 1019.21 762.706 1021.77 760.059 1024.33 758.735 1025.6 757.412 1028.16 754.765 1029.44 753.441 1029.44 750.794 1030.72 749.47 1030.72 745.5 1030.72 745.5 1032 742.853 1030.72 740.206 1030.72L723 1028.16ZM746.823 982.116C740.206 1021.77 740.206 1021.77 740.206 1021.77 738.882 1024.33 738.882 1025.6 738.882 1025.6 738.882 1026.88 738.882 1026.88 740.206 1026.88 740.206 1028.16 740.206 1028.16 741.529 1028.16 745.5 1028.16 748.147 1028.16 749.47 1025.6 753.441 1021.77 754.765 1015.37 756.088 1007.7 757.412 1001.3 758.735 996.186 757.412 991.07 756.088 988.512 756.088 985.953 753.441 984.674 752.118 983.395 750.794 982.116 746.823 982.116Z" fill="#FFFFFF" fill-rule="evenodd"/><path d="M785.5 989.116C784.25 1009.58 784.25 1009.58 784.25 1009.58 784.25 1009.58 784.25 1009.58 784.25 1009.58 786.75 1009.58 789.25 1009.58 790.5 1007.02 790.5 1005.74 791.75 1001.91 793 998.07 794.25 998.07 794.25 998.07 794.25 998.07 791.75 1024.93 791.75 1024.93 791.75 1024.93 790.5 1024.93 790.5 1024.93 790.5 1024.93 790.5 1022.37 790.5 1019.81 789.25 1017.26 789.25 1015.98 788 1014.7 788 1013.42 786.75 1013.42 785.5 1012.14 784.25 1012.14 783 1027.49 783 1027.49 783 1027.49 781.75 1030.05 781.75 1031.33 781.75 1032.6 781.75 1032.6 783 1033.88 783 1033.88 783 1033.88 784.25 1035.16 785.5 1035.16 788 1035.16 788 1035.16 788 1035.16 790.5 1035.16 794.25 1033.88 795.5 1032.6 798 1030.05 800.5 1027.49 801.75 1022.37 801.75 1022.37 801.75 1022.37 801.75 1022.37 799.25 1039 799.25 1039 799.25 1039 768 1036.44 768 1036.44 768 1036.44 768 1035.16 768 1035.16 768 1035.16 769.25 1035.16 769.25 1035.16 769.25 1035.16 770.5 1035.16 770.5 1035.16 771.75 1033.88 771.75 1033.88 773 1033.88 773 1032.6 773 1031.33 773 1030.05 773 1027.49 776.75 994.233 776.75 994.233 776.75 994.233 776.75 991.675 776.75 990.396 776.75 989.116 776.75 987.837 776.75 987.837 775.5 987.837 775.5 986.558 774.25 986.558 773 986.558 771.75 985.279 771.75 985.279 771.75 985.279 771.75 984 771.75 984 771.75 984 803 986.558 803 986.558 803 986.558 801.75 1001.91 801.75 1001.91 801.75 1001.91 800.5 1001.91 800.5 1001.91 800.5 1001.91 800.5 998.07 799.25 995.512 799.25 994.233 798 992.954 796.75 991.675 795.5 990.396 794.25 989.116 791.75 989.116 789.25 989.116L785.5 989.116Z" fill="#FFFFFF" fill-rule="evenodd"/><path d="M835.122 1020.07C843.829 986 843.829 986 843.829 986 858.756 986 858.756 986 858.756 986 858.756 987.262 858.756 987.262 858.756 987.262 857.512 987.262 857.512 987.262 857.512 987.262 856.268 987.262 856.268 987.262 855.024 988.524 855.024 988.524 855.024 989.786 853.781 989.786 853.781 991.048 853.781 992.309 853.781 994.833 855.024 1028.9 855.024 1028.9 855.024 1028.9 855.024 1031.43 855.024 1032.69 855.024 1033.95 855.024 1033.95 856.268 1035.21 856.268 1035.21 857.512 1035.21 857.512 1036.48 858.756 1036.48 860 1036.48 860 1036.48 860 1036.48 860 1037.74 860 1037.74 860 1037.74 841.341 1037.74 841.341 1037.74 841.341 1037.74 841.341 1036.48 841.341 1036.48 841.341 1036.48 842.585 1036.48 842.585 1036.48 842.585 1036.48 843.829 1036.48 843.829 1036.48 845.073 1035.21 845.073 1035.21 845.073 1033.95 846.317 1033.95 846.317 1032.69 846.317 1031.43 846.317 1028.9 845.073 991.048 845.073 991.048 845.073 991.048 832.634 1037.74 832.634 1037.74 832.634 1037.74 831.39 1037.74 831.39 1037.74 831.39 1037.74 816.463 992.309 816.463 992.309 816.463 992.309 817.707 1027.64 817.707 1027.64 817.707 1027.64 817.707 1030.17 817.707 1032.69 817.707 1032.69 817.707 1033.95 817.707 1035.21 818.951 1035.21 820.195 1036.48 821.439 1036.48 822.683 1036.48 822.683 1037.74 822.683 1037.74 822.683 1037.74 810.244 1039 810.244 1039 810.244 1039 810.244 1037.74 810.244 1037.74 810.244 1037.74 810.244 1037.74 810.244 1037.74 810.244 1037.74 811.488 1037.74 812.732 1036.48 812.732 1036.48 813.975 1036.48 813.975 1035.21 813.975 1035.21 815.219 1033.95 815.219 1032.69 815.219 1032.69 815.219 1031.43 815.219 1030.17 815.219 1028.9 813.975 996.095 813.975 996.095 813.975 996.095 813.975 993.571 813.975 992.309 813.975 991.048 813.975 989.786 813.975 989.786 812.732 989.786 812.732 988.524 811.488 988.524 810.244 988.524 809 988.524 809 988.524 809 988.524 809 987.262 809 987.262 809 987.262 823.927 987.262 823.927 987.262 823.927 987.262L835.122 1020.07Z" fill="#FFFFFF" fill-rule="evenodd"/><path d="M898 980C898 981.302 898 981.302 898 981.302 898 981.302 896.667 981.302 895.333 982.605 895.333 983.907 894 986.512 892.667 991.721 887.333 1012.56 887.333 1012.56 887.333 1012.56 888.667 1025.58 888.667 1025.58 888.667 1025.58 888.667 1028.19 890 1029.49 890 1029.49 890 1030.79 891.333 1030.79 891.333 1032.09 892.667 1032.09 892.667 1032.09 894 1032.09 896.667 1032.09 896.667 1032.09 896.667 1032.09 896.667 1033.4 896.667 1033.4 896.667 1033.4 874 1036 874 1036 874 1036 874 1034.7 874 1034.7 874 1034.7 876.667 1034.7 876.667 1034.7 876.667 1034.7 878 1034.7 878 1033.4 879.333 1033.4 879.333 1032.09 879.333 1032.09 879.333 1030.79 880.667 1030.79 879.333 1029.49 879.333 1025.58 878 1015.16 878 1015.16 878 1015.16 866 994.326 866 994.326 866 994.326 863.333 990.419 862 987.814 860.667 987.814 859.333 986.512 859.333 986.512 858 986.512 858 985.209 858 985.209 858 985.209 875.333 982.605 875.333 982.605 875.333 982.605 876.667 983.907 876.667 983.907 876.667 983.907 875.333 983.907 875.333 983.907 875.333 983.907 874 983.907 874 983.907 872.667 985.209 872.667 985.209 872.667 986.512 872.667 986.512 872.667 987.814 874 989.116 875.333 993.023 886 1009.95 886 1009.95 886 1009.95 890 993.023 890 993.023 890 993.023 891.333 989.116 891.333 986.512 891.333 985.209 891.333 983.907 891.333 983.907 890 982.605 890 982.605 888.667 982.605 887.333 982.605 886 981.302 886 981.302 886 981.302L898 980Z" fill="#FFFFFF" fill-rule="evenodd"/><path d="M942.235 968.558C947.412 966 952.588 967.279 957.765 971.116 962.941 974.953 966.824 980.07 969.412 987.744 970.706 994.139 972 999.256 970.706 1005.65 969.412 1012.05 965.53 1017.16 959.059 1019.72 952.588 1021 946.118 1019.72 940.941 1014.6 935.765 1010.77 933.177 1005.65 930.588 999.256 928 991.581 928 985.186 930.588 980.07 931.882 973.674 935.765 969.837 942.235 968.558ZM942.235 971.116C939.647 971.116 937.059 974.953 937.059 980.07 937.059 983.907 938.353 990.302 940.941 996.698 943.53 1005.65 946.118 1010.77 950 1014.6 952.588 1017.16 955.177 1017.16 957.765 1017.16 959.059 1015.88 960.353 1014.6 961.647 1013.33 962.941 1010.77 962.941 1008.21 962.941 1004.37 962.941 1000.53 961.647 996.698 960.353 991.581 957.765 983.907 955.177 980.07 953.882 976.232 951.294 973.674 950 972.395 948.706 971.116 946.118 969.837 944.824 969.837 942.235 971.116Z" fill="#FFFFFF" fill-rule="evenodd"/><path d="M976.933 958.383C985.8 977.851 985.8 977.851 985.8 977.851 985.8 977.851 985.8 977.851 985.8 977.851 988.333 976.553 988.333 975.255 989.6 975.255 990.867 973.957 990.867 972.66 990.867 970.064 990.867 968.766 989.6 966.17 989.6 963.574 989.6 963.574 989.6 963.574 989.6 963.574 1001 986.936 1001 986.936 1001 986.936 999.733 988.234 999.733 988.234 999.733 988.234 997.2 983.043 994.667 980.447 993.4 980.447 990.867 979.149 989.6 979.149 987.067 980.447 985.8 980.447 985.8 980.447 985.8 980.447 992.133 994.723 992.133 994.723 992.133 994.723 993.4 997.319 994.667 998.617 994.667 999.915 995.933 999.915 995.933 999.915 997.2 1001.21 997.2 1001.21 998.467 1001.21 999.733 999.915 1001 999.915 1001 999.915 1001 999.915 1001 1001.21 1001 1001.21 1001 1001.21 983.267 1009 983.267 1009 983.267 1009 983.267 1007.7 983.267 1007.7 983.267 1007.7 983.267 1007.7 983.267 1007.7 983.267 1007.7 984.533 1006.4 985.8 1006.4 985.8 1005.11 985.8 1005.11 985.8 1003.81 985.8 1003.81 985.8 1002.51 985.8 1001.21 984.533 998.617 970.6 967.468 970.6 967.468 970.6 967.468 970.6 964.872 969.333 963.574 969.333 962.277 968.067 962.277 968.067 960.979 966.8 960.979 966.8 960.979 965.533 960.979 964.266 962.277 963 962.277 963 962.277 963 962.277 963 960.979 963 960.979 963 960.979 990.867 948 990.867 948 990.867 948 997.2 962.277 997.2 962.277 997.2 962.277 995.933 962.277 995.933 962.277 995.933 962.277 994.667 959.681 993.4 957.085 990.867 955.787 989.6 954.489 988.333 954.489 985.8 954.489 984.533 954.489 983.267 955.787 979.467 957.085L976.933 958.383Z" fill="#FFFFFF" fill-rule="evenodd"/><path d="M1035.38 922C1044.34 937.13 1044.34 937.13 1044.34 937.13 1044.34 937.13 1044.34 937.13 1044.34 937.13 1041.78 933.348 1037.94 932.087 1035.38 930.826 1031.53 929.565 1028.97 929.565 1027.69 930.826 1025.12 932.087 1025.12 933.348 1025.12 934.609 1023.84 935.87 1025.12 938.391 1025.12 939.652 1026.41 940.913 1026.41 940.913 1027.69 942.174 1028.97 942.174 1030.25 943.435 1031.53 943.435 1032.81 943.435 1035.38 943.435 1039.22 944.696 1044.34 944.696 1048.19 944.696 1050.75 945.956 1054.59 948.478 1055.88 949.739 1058.44 953.522 1061 956.043 1061 959.826 1061 964.87 1061 968.652 1058.44 971.174 1055.88 973.696 1054.59 973.696 1053.31 973.696 1052.03 974.957 1050.75 974.957 1049.47 974.957 1048.19 974.957 1046.91 974.957 1045.62 974.957 1045.62 974.957 1045.62 976.217 1045.62 976.217 1044.34 976.217 1044.34 977.478 1044.34 978.739 1045.62 980 1044.34 980 1044.34 980 1044.34 980 1034.09 963.609 1034.09 963.609 1034.09 963.609 1034.09 963.609 1034.09 963.609 1034.09 963.609 1037.94 967.391 1041.78 969.913 1045.62 971.174 1048.19 972.435 1052.03 972.435 1053.31 971.174 1055.88 969.913 1057.16 968.652 1057.16 966.13 1057.16 964.87 1057.16 962.348 1055.88 961.087 1054.59 959.826 1054.59 958.565 1053.31 958.565 1052.03 957.304 1050.75 957.304 1049.47 956.043 1048.19 956.043 1045.62 956.043 1043.06 956.043 1039.22 956.043 1035.38 954.783 1034.09 954.783 1031.53 953.522 1030.25 953.522 1027.69 952.261 1026.41 951 1025.12 948.478 1023.84 947.217 1021.28 943.435 1020 939.652 1020 935.87 1021.28 933.348 1022.56 930.826 1025.12 928.304 1026.41 928.304 1027.69 927.043 1028.97 927.043 1028.97 927.043 1030.25 927.043 1032.81 927.043 1034.09 927.043 1034.09 927.043 1035.38 927.043 1035.38 925.783 1035.38 925.783 1035.38 925.783 1035.38 924.522 1035.38 924.522 1035.38 923.261L1035.38 922Z" fill="#FFFFFF" fill-rule="evenodd"/><path d="M1070.17 899C1080.39 914 1080.39 914 1080.39 914 1080.39 914 1080.39 914 1080.39 914 1076.56 910.25 1072.72 909 1070.17 907.75 1066.33 907.75 1063.78 907.75 1061.22 910.25 1059.94 911.5 1058.67 912.75 1058.67 915.25 1057.39 917.75 1058.67 921.5 1058.67 924 1061.22 927.75 1062.5 931.5 1065.06 935.25 1068.89 939 1071.44 941.5 1074 944 1076.56 946.5 1080.39 947.75 1082.94 949 1085.5 949 1088.06 949 1089.33 946.5 1091.89 945.25 1093.17 944 1093.17 941.5 1094.44 939 1094.44 936.5 1094.44 931.5 1097 935.25 1097 935.25 1097 935.25 1097 939 1097 941.5 1095.72 944 1094.44 946.5 1093.17 949 1090.61 950.25 1086.78 952.75 1084.22 954 1080.39 954 1076.56 954 1072.72 952.75 1068.89 951.5 1065.06 949 1061.22 945.25 1058.67 942.75 1056.11 937.75 1053.56 934 1052.28 929 1051 925.25 1051 920.25 1052.28 916.5 1053.56 912.75 1054.83 910.25 1058.67 907.75 1059.94 906.5 1062.5 905.25 1066.33 905.25 1067.61 905.25 1068.89 904 1070.17 904 1070.17 904 1070.17 904 1070.17 902.75 1070.17 901.5 1070.17 901.5 1068.89 900.25L1070.17 899Z" fill="#FFFFFF" fill-rule="evenodd"/><path d="M1120 922.049C1120 923.317 1120 923.317 1120 923.317 1106.11 936 1106.11 936 1106.11 936 1104.84 934.732 1104.84 934.732 1104.84 934.732 1106.11 933.463 1106.11 933.463 1106.11 933.463 1107.37 933.463 1107.37 932.195 1107.37 932.195 1107.37 930.927 1107.37 930.927 1107.37 929.659 1106.11 929.659 1106.11 928.39 1103.58 925.854 1082.11 900.488 1082.11 900.488 1082.11 900.488 1079.58 897.951 1078.32 897.951 1078.32 896.683 1077.05 896.683 1077.05 896.683 1075.79 896.683 1075.79 896.683 1074.53 896.683 1073.26 897.951 1073.26 897.951 1073.26 897.951 1073.26 897.951 1072 897.951 1072 897.951 1072 897.951 1085.89 884 1085.89 884 1085.89 884 1087.16 885.268 1087.16 885.268 1087.16 885.268 1085.89 886.537 1085.89 886.537 1085.89 886.537 1085.89 886.537 1084.63 887.805 1084.63 889.073 1084.63 889.073 1084.63 890.342 1085.89 890.342 1085.89 891.61 1087.16 892.878 1088.42 894.146 1111.16 919.512 1111.16 919.512 1111.16 919.512 1112.42 922.049 1113.68 923.317 1113.68 923.317 1114.95 923.317 1114.95 923.317 1116.21 923.317 1117.47 923.317 1117.47 923.317 1118.74 923.317L1120 922.049Z" fill="#FFFFFF" fill-rule="evenodd"/><path d="M1098.98 876.391C1114.55 890.5 1114.55 890.5 1114.55 890.5 1114.55 890.5 1114.55 890.5 1114.55 890.5 1115.85 887.935 1117.15 886.652 1115.85 884.087 1114.55 881.522 1113.26 878.957 1110.66 876.391 1111.96 875.109 1111.96 875.109 1111.96 875.109 1131.43 894.348 1131.43 894.348 1131.43 894.348 1130.13 895.63 1130.13 895.63 1130.13 895.63 1127.53 893.065 1126.23 891.783 1123.64 891.783 1122.34 890.5 1121.04 890.5 1119.74 890.5 1118.45 890.5 1117.15 891.783 1115.85 893.065 1126.23 903.326 1126.23 903.326 1126.23 903.326 1128.83 904.609 1130.13 905.891 1130.13 905.891 1131.43 907.174 1131.43 907.174 1132.72 907.174 1132.72 907.174 1134.02 905.891 1134.02 905.891 1136.62 903.326 1136.62 903.326 1136.62 903.326 1139.21 902.043 1139.21 898.196 1139.21 895.63 1139.21 893.065 1137.91 889.217 1135.32 885.37 1136.62 884.087 1136.62 884.087 1136.62 884.087 1147 896.913 1147 896.913 1147 896.913 1123.64 920 1123.64 920 1123.64 920 1123.64 920 1123.64 920 1123.64 920 1123.64 918.717 1123.64 918.717 1123.64 918.717 1124.94 917.435 1124.94 917.435 1124.94 916.152 1124.94 914.87 1124.94 914.87 1124.94 913.587 1124.94 913.587 1123.64 912.304 1121.04 909.739 1096.38 886.652 1096.38 886.652 1096.38 886.652 1095.08 885.37 1093.79 884.087 1093.79 884.087 1092.49 882.804 1091.19 882.804 1091.19 882.804 1089.89 882.804 1088.6 882.804 1088.6 884.087 1087.3 885.37 1087.3 885.37 1087.3 885.37 1086 884.087 1086 884.087 1086 884.087 1108.06 861 1108.06 861 1108.06 861 1119.74 872.544 1119.74 872.544 1119.74 872.544 1118.45 872.544 1118.45 872.544 1118.45 872.544 1115.85 871.261 1113.26 869.978 1111.96 868.696 1109.36 868.696 1108.06 868.696 1105.47 869.978 1105.47 869.978 1102.87 871.261 1101.57 872.544L1098.98 876.391Z" fill="#FFFFFF" fill-rule="evenodd"/><path d="M1120.59 847.571C1157.29 852.714 1157.29 852.714 1157.29 852.714 1139.57 838.571 1139.57 838.571 1139.57 838.571 1137.04 837.286 1135.78 836 1134.51 836 1133.24 836 1130.71 836 1129.45 838.571 1129.45 837.286 1129.45 837.286 1129.45 837.286 1137.04 827 1137.04 827 1137.04 827 1138.31 828.286 1138.31 828.286 1138.31 828.286 1137.04 829.571 1137.04 830.857 1137.04 832.143 1137.04 832.143 1137.04 833.429 1137.04 833.429 1138.31 834.714 1139.57 836 1140.84 837.286 1175 864.286 1175 864.286 1175 864.286 1173.73 865.571 1173.73 865.571 1173.73 865.571 1124.39 857.857 1124.39 857.857 1124.39 857.857 1150.96 878.429 1150.96 878.429 1150.96 878.429 1152.22 881 1154.76 881 1156.02 881 1157.29 881 1158.55 881 1159.82 879.714 1159.82 879.714 1159.82 879.714 1159.82 879.714 1161.08 879.714 1161.08 879.714 1161.08 879.714 1152.22 890 1152.22 890 1152.22 890 1152.22 890 1152.22 890 1152.22 890 1153.49 887.429 1153.49 886.143 1153.49 884.857 1152.22 883.571 1150.96 882.286 1149.69 881 1120.59 857.857 1120.59 857.857 1120.59 857.857 1119.33 857.857 1119.33 857.857 1119.33 857.857 1118.06 856.571 1116.8 856.571 1115.53 856.571 1115.53 857.857 1114.27 857.857 1114.27 859.143 1113 857.857 1113 857.857 1113 857.857L1120.59 847.571Z" fill="#FFFFFF" fill-rule="evenodd"/><path d="M1156.7 795C1171 805.4 1171 805.4 1171 805.4 1171 806.7 1171 806.7 1171 806.7 1165.8 804.1 1161.9 804.1 1159.3 804.1 1155.4 804.1 1152.8 806.7 1151.5 808 1150.2 810.6 1150.2 813.2 1150.2 815.8 1151.5 818.4 1152.8 821 1154.1 823.6 1156.7 826.2 1160.6 828.8 1164.5 831.4 1168.4 834 1172.3 836.6 1176.2 837.9 1180.1 839.2 1182.7 839.2 1185.3 839.2 1189.2 837.9 1190.5 836.6 1191.8 834 1193.1 832.7 1194.4 830.1 1194.4 827.5 1194.4 824.9 1193.1 822.3 1190.5 818.4 1194.4 821 1194.4 821 1194.4 821 1195.7 824.9 1197 827.5 1197 830.1 1197 832.7 1195.7 835.3 1194.4 837.9 1191.8 841.8 1189.2 844.4 1185.3 845.7 1181.4 847 1177.5 847 1173.6 847 1168.4 845.7 1164.5 844.4 1160.6 841.8 1156.7 839.2 1152.8 835.3 1150.2 831.4 1147.6 827.5 1146.3 823.6 1145 819.7 1145 814.5 1146.3 811.9 1147.6 808 1148.9 806.7 1151.5 804.1 1154.1 802.8 1156.7 801.5 1156.7 801.5 1158 800.2 1158 800.2 1158 798.9 1158 798.9 1156.7 797.6 1156.7 797.6 1155.4 796.3L1156.7 795Z" fill="#FFFFFF" fill-rule="evenodd"/><path d="M1167.04 783.25C1186.42 793.25 1186.42 793.25 1186.42 793.25 1186.42 792 1186.42 792 1186.42 792 1187.71 789.5 1187.71 788.25 1186.42 785.75 1185.13 784.5 1182.54 782 1178.67 780.75 1179.96 779.5 1179.96 779.5 1179.96 779.5 1204.5 792 1204.5 792 1204.5 792 1203.21 792 1203.21 792 1203.21 792 1200.62 790.75 1198.04 790.75 1196.75 790.75 1194.17 790.75 1192.88 790.75 1191.58 790.75 1190.29 792 1190.29 792 1189 794.5 1201.92 800.75 1201.92 800.75 1201.92 800.75 1204.5 802 1207.08 802 1207.08 802 1208.38 803.25 1208.38 802 1209.67 802 1209.67 802 1209.67 802 1210.96 800.75 1212.25 798.25 1212.25 798.25 1212.25 798.25 1213.54 795.75 1213.54 792 1212.25 789.5 1210.96 787 1208.38 784.5 1205.79 780.75 1205.79 780.75 1205.79 780.75 1205.79 780.75 1220 789.5 1220 789.5 1220 789.5 1205.79 817 1205.79 817 1205.79 817 1204.5 817 1204.5 817 1204.5 817 1204.5 815.75 1204.5 815.75 1204.5 815.75 1204.5 814.5 1204.5 814.5 1204.5 813.25 1204.5 812 1204.5 812 1203.21 810.75 1203.21 810.75 1201.92 809.5 1199.33 809.5 1168.33 794.5 1168.33 794.5 1168.33 794.5 1167.04 793.25 1165.75 792 1164.46 792 1164.46 792 1163.17 792 1161.88 792 1161.88 792 1160.58 793.25 1160.58 794.5 1159.29 795.75 1159.29 795.75 1159.29 795.75 1158 794.5 1158 794.5 1158 794.5 1172.21 767 1172.21 767 1172.21 767 1186.42 774.5 1186.42 774.5 1186.42 774.5 1186.42 774.5 1186.42 774.5 1186.42 774.5 1182.54 773.25 1179.96 773.25 1177.38 773.25 1176.08 773.25 1173.5 774.5 1172.21 775.75 1170.92 775.75 1170.92 778.25 1169.63 780.75L1167.04 783.25Z" fill="#FFFFFF" fill-rule="evenodd"/><path d="M1182.05 738C1198.45 744.515 1198.45 744.515 1198.45 744.515 1197.19 745.818 1197.19 745.818 1197.19 745.818 1193.4 744.515 1189.62 744.515 1187.1 744.515 1183.31 745.818 1180.79 748.424 1180.79 749.727 1179.52 752.333 1179.52 753.636 1180.79 754.939 1182.05 756.242 1183.31 757.545 1184.57 758.849 1185.83 758.849 1187.1 758.849 1187.1 758.849 1189.62 758.849 1190.88 758.849 1192.14 757.545 1193.4 757.545 1194.67 756.242 1198.45 753.636 1202.24 751.03 1206.02 748.424 1208.55 748.424 1212.33 748.424 1214.86 748.424 1218.64 749.727 1222.43 751.03 1224.95 753.636 1227.48 757.545 1228.74 760.152 1230 764.061 1228.74 767.97 1227.48 769.273 1227.48 769.273 1226.21 770.576 1226.21 771.879 1224.95 773.182 1223.69 773.182 1222.43 774.485 1222.43 774.485 1222.43 775.788 1222.43 775.788 1222.43 777.091 1222.43 777.091 1222.43 778.394 1223.69 778.394 1223.69 779.697 1223.69 781 1223.69 781 1223.69 781 1206.02 773.182 1206.02 773.182 1206.02 773.182 1206.02 771.879 1206.02 771.879 1206.02 771.879 1211.07 773.182 1216.12 773.182 1218.64 771.879 1222.43 771.879 1224.95 769.273 1226.21 766.667 1226.21 765.364 1226.21 762.758 1224.95 761.455 1224.95 760.152 1222.43 758.849 1221.17 757.545 1219.9 757.545 1218.64 757.545 1217.38 757.545 1216.12 757.545 1214.86 757.545 1213.6 757.545 1212.33 758.849 1211.07 758.849 1208.55 761.455 1204.76 764.061 1202.24 765.364 1199.71 766.667 1198.45 766.667 1195.93 766.667 1193.4 766.667 1192.14 767.97 1189.62 766.667 1187.1 765.364 1183.31 764.061 1180.79 762.758 1178.26 758.849 1177 756.242 1177 752.333 1178.26 749.727 1178.26 748.424 1178.26 747.121 1179.52 745.818 1179.52 745.818 1180.79 744.515 1182.05 744.515 1183.31 743.212 1184.57 741.909 1184.57 741.909 1184.57 741.909 1184.57 740.606 1184.57 740.606 1183.31 740.606 1183.31 739.303 1182.05 739.303L1182.05 738Z" fill="#FFFFFF" fill-rule="evenodd"/></g></svg>