<svg width="1733" height="1732" xmlns="http://www.w3.org/2000/svg" xmlns:xlink="http://www.w3.org/1999/xlink" overflow="hidden"><defs><clipPath id="clip0"><rect x="908" y="317" width="1733" height="1732"/></clipPath></defs><g clip-path="url(#clip0)" transform="translate(-908 -317)"><path d="M1775.51 317.5C2252.47 317.5 2640.5 705.762 2640.5 1183 2640.5 1660.24 2252.47 2048.5 1775.51 2048.5 1296.53 2048.5 908.5 1660.24 908.5 1183 908.5 705.762 1296.53 317.5 1775.51 317.5M1775.51 345.811C2238.32 345.811 2612.21 719.917 2612.21 1183 2612.21 1646.08 2238.32 2020.19 1775.51 2020.19 1310.68 2020.19 936.794 1646.08 936.794 1183 936.794 719.917 1310.68 345.811 1775.51 345.811" stroke="#006C3B" stroke-width="0" stroke-linejoin="round" stroke-miterlimit="10" fill="#006C3B" fill-rule="evenodd"/><path d="M964 1182.5C964 735.978 1326.43 374 1773.5 374 2220.57 374 2583 735.978 2583 1182.5 2583 1629.02 2220.57 1991 1773.5 1991 1326.43 1991 964 1629.02 964 1182.5Z" fill="#006C3B" fill-rule="evenodd"/><path d="M1168 1183C1168 848.868 1439.09 578 1773.5 578 2107.91 578 2379 848.868 2379 1183 2379 1517.13 2107.91 1788 1773.5 1788 1439.09 1788 1168 1517.13 1168 1183Z" fill="#FFFFFF" fill-rule="evenodd"/><path d="M1093.24 901.284C1087.17 897.239 1079.09 895.216 1071 893.194L1075.04 883.082C1081.11 885.104 1089.19 889.149 1097.28 891.172L1113.45 854.769C1119.52 856.791 1127.6 860.836 1137.71 864.88 1149.84 868.925 1157.93 872.97 1163.99 874.992L1159.95 885.104 1151.86 881.06 1141.75 909.373 1161.97 917.463C1166.01 919.485 1172.08 921.507 1180.16 925.552L1176.12 935.664C1170.05 931.619 1163.99 929.597 1157.93 927.575L1137.71 919.485 1125.58 945.776 1133.67 949.821 1131.65 959.933C1125.58 955.888 1115.47 951.843 1105.37 947.798 1093.24 943.754 1085.15 939.709 1079.09 937.687L1093.24 901.284M1091.22 931.619 1119.52 943.754 1129.62 915.44 1101.32 903.306 1091.22 931.619M1105.37 895.216 1133.67 907.351 1145.8 879.037 1117.5 866.903 1105.37 895.216M1212.51 771.851C1212.51 769.828 1212.51 765.784 1212.51 763.761 1214.53 763.761 1218.57 761.739 1226.66 761.739 1224.64 765.784 1224.64 767.806 1224.64 771.851 1222.61 771.851 1218.57 771.851 1212.51 771.851M1157.93 779.94C1161.97 775.895 1163.99 771.851 1168.03 767.806L1184.21 745.56C1186.23 741.515 1190.27 737.47 1192.29 733.425L1198.36 737.47C1196.33 741.515 1192.29 745.56 1190.27 749.604L1182.18 757.694 1196.33 767.806 1200.38 761.739C1204.42 755.672 1206.44 751.627 1210.49 747.582L1216.55 753.649C1212.51 755.672 1210.49 759.716 1206.44 765.784L1202.4 771.851 1218.57 783.985 1226.66 773.873C1230.7 769.828 1232.72 765.784 1236.76 761.739L1242.83 765.784C1238.79 769.828 1236.76 773.873 1232.72 777.918L1212.51 804.209C1210.49 808.254 1206.44 812.298 1204.42 818.366L1198.36 812.298C1200.38 808.254 1204.42 804.209 1208.46 800.164L1214.53 792.075 1196.33 779.94 1192.29 783.985C1188.25 788.03 1186.23 794.097 1184.21 798.142L1178.14 792.075C1180.16 788.03 1184.21 783.985 1186.23 779.94L1190.27 775.895 1178.14 765.784 1174.1 771.851C1170.05 775.895 1168.03 779.94 1163.99 783.985L1157.93 779.94M1141.75 781.963 1210.49 832.522 1256.98 767.806 1188.25 717.246 1141.75 781.963M1129.62 786.007 1188.25 705.112C1194.31 711.179 1200.38 715.224 1208.46 721.291L1248.89 751.627C1256.98 757.694 1265.07 761.739 1273.15 767.806L1267.09 775.895 1263.04 771.851 1216.55 836.567 1222.61 840.612 1216.55 846.679C1208.46 840.612 1200.38 834.545 1192.29 830.5L1151.86 800.164C1143.77 794.097 1137.71 790.052 1129.62 786.007M1267.09 636.351C1269.11 632.306 1269.11 630.283 1271.13 626.239 1273.15 626.239 1275.17 626.239 1279.22 628.261 1283.26 628.261 1287.3 630.283 1291.35 630.283 1291.35 634.328 1289.32 636.351 1289.32 640.395 1285.28 638.373 1281.24 638.373 1277.2 636.351 1273.15 636.351 1271.13 636.351 1267.09 636.351M1287.3 662.642C1289.32 658.597 1289.32 656.575 1289.32 652.53 1293.37 652.53 1295.39 652.53 1299.43 654.552 1303.47 654.552 1307.52 654.552 1311.56 654.552 1309.54 658.597 1309.54 662.642 1307.52 666.686 1305.5 664.664 1301.45 664.664 1297.41 662.642 1295.39 662.642 1291.35 662.642 1287.3 662.642M1301.45 692.978C1307.52 684.888 1313.58 676.798 1317.63 670.731 1321.67 664.664 1325.71 660.619 1327.73 656.575L1289.32 616.127C1285.28 612.082 1281.24 608.037 1279.22 606.015L1285.28 597.925C1289.32 601.97 1291.35 606.015 1295.39 610.06L1333.8 648.485C1337.84 642.418 1339.86 636.351 1343.91 632.306L1349.97 638.373C1343.91 646.463 1339.86 652.53 1339.86 656.575L1349.97 666.686C1354.01 672.754 1358.06 676.798 1364.12 680.843L1356.03 688.933C1351.99 682.866 1347.95 678.821 1343.91 674.776L1333.8 662.642C1329.75 668.709 1325.71 674.776 1321.67 680.843 1317.63 684.888 1315.6 690.955 1311.56 697.022L1301.45 692.978M1269.11 664.664C1273.15 660.619 1275.17 656.575 1277.2 656.575L1283.26 662.642C1281.24 664.664 1279.22 666.686 1273.15 670.731L1269.11 674.776 1305.5 711.179C1307.52 715.224 1311.56 719.269 1315.6 723.313L1309.54 731.403C1305.5 725.336 1301.45 721.291 1297.41 717.246L1275.17 695C1279.22 701.067 1281.24 707.134 1281.24 711.179 1283.26 715.224 1283.26 721.291 1283.26 727.358 1279.22 725.336 1275.17 725.336 1271.13 725.336 1273.15 719.269 1271.13 711.179 1271.13 703.089 1269.11 697.022 1267.09 688.933 1263.04 680.843L1261.02 682.866C1254.96 686.91 1250.92 690.955 1246.87 695L1240.81 688.933C1244.85 684.888 1250.92 680.843 1254.96 676.798L1256.98 674.776 1244.85 660.619C1242.83 662.642 1240.81 664.664 1238.79 666.686 1238.79 668.709 1236.76 670.731 1234.74 674.776 1230.7 674.776 1226.66 672.754 1224.64 672.754 1226.66 668.709 1228.68 666.686 1230.7 662.642 1232.72 660.619 1236.76 656.575 1238.79 654.552 1240.81 650.507 1242.83 646.463 1242.83 644.44 1244.85 640.395 1246.87 636.351 1246.87 634.328 1250.92 636.351 1254.96 636.351 1259 636.351 1256.98 640.395 1254.96 642.418 1252.94 644.44 1252.94 648.485 1250.92 650.507 1248.89 652.53L1265.07 668.709 1269.11 664.664M1279.22 682.866C1281.24 680.843 1281.24 678.821 1283.26 674.776 1285.28 674.776 1287.3 676.798 1291.35 676.798 1295.39 678.821 1299.43 678.821 1303.47 680.843 1301.45 682.866 1301.45 686.91 1299.43 690.955 1295.39 688.933 1293.37 686.91 1289.32 686.91 1285.28 684.888 1283.26 684.888 1279.22 682.866M1380.29 583.769C1386.36 579.724 1392.42 577.701 1398.49 573.657L1438.92 551.41 1442.96 559.5C1438.92 563.545 1436.9 567.589 1434.87 571.634 1430.83 573.657 1428.81 577.701 1426.79 581.746L1428.81 585.791 1457.11 571.634C1461.15 569.612 1465.2 565.567 1469.24 563.545L1473.28 571.634C1469.24 573.657 1463.18 575.679 1461.15 577.701L1432.85 593.88 1442.96 610.06C1447 614.104 1447 618.149 1442.96 620.172 1440.94 624.216 1436.9 626.239 1430.83 630.283 1428.81 628.261 1426.79 626.239 1422.74 624.216 1426.79 622.194 1428.81 620.172 1432.85 618.149 1434.87 616.127 1434.87 614.104 1432.85 612.082L1424.77 597.925 1396.46 614.104C1392.42 618.149 1386.36 620.172 1380.29 624.216L1376.25 616.127C1382.31 614.104 1388.38 610.06 1392.42 608.037L1420.72 591.858C1420.72 587.813 1418.7 585.791 1416.68 583.769 1416.68 581.746 1418.7 579.724 1420.72 577.701 1422.74 573.657 1424.77 571.634 1426.79 567.589L1402.53 579.724C1398.49 583.769 1392.42 587.813 1384.34 591.858L1380.29 583.769M1356.03 551.41C1356.03 547.366 1358.06 545.343 1362.1 543.321 1368.16 545.343 1374.23 549.388 1378.27 553.433 1374.23 555.455 1372.21 559.5 1370.19 561.522 1366.14 557.477 1360.08 553.433 1356.03 551.41M1380.29 531.186C1382.31 529.164 1384.34 527.142 1388.38 525.119 1394.44 531.186 1398.49 535.231 1400.51 537.254 1398.49 539.276 1396.46 541.298 1392.42 545.343 1390.4 541.298 1384.34 537.254 1380.29 531.186M1410.62 510.963C1416.68 510.963 1420.72 510.963 1424.77 510.963 1422.74 519.052 1420.72 527.142 1420.72 535.231L1444.98 523.097C1444.98 525.119 1447 529.164 1449.02 531.186 1451.05 535.231 1453.07 537.254 1455.09 541.298L1447 545.343 1438.92 535.231 1366.14 575.679 1374.23 589.836 1364.12 593.88C1364.12 589.836 1362.1 587.813 1360.08 583.769 1358.06 579.724 1356.03 577.701 1354.01 575.679L1412.64 541.298C1412.64 535.231 1412.64 531.186 1412.64 525.119 1410.62 521.074 1410.62 517.03 1410.62 510.963M1485.41 484.672 1519.78 472.537C1519.78 476.582 1519.78 482.649 1519.78 488.716 1519.78 496.806 1519.78 502.873 1519.78 510.963 1527.86 515.007 1531.91 519.052 1535.95 523.097 1537.97 527.142 1539.99 531.186 1539.99 535.231 1542.01 539.276 1539.99 543.321 1537.97 547.366 1535.95 549.388 1531.91 551.41 1525.84 553.433 1525.84 551.41 1523.82 547.366 1521.8 543.321 1527.86 543.321 1529.89 541.298 1529.89 539.276 1531.91 535.231 1529.89 533.209 1529.89 531.186 1527.86 527.142 1525.84 525.119 1521.8 523.097 1519.78 519.052 1515.73 517.03 1511.69 515.007 1511.69 510.963 1511.69 504.895 1511.69 498.828 1511.69 494.783 1509.67 488.716 1509.67 482.649L1497.54 486.694 1527.86 579.724 1517.76 581.746C1515.73 575.679 1513.71 569.612 1511.69 561.522L1493.5 502.873C1489.45 496.806 1487.43 488.716 1485.41 484.672M1550.1 452.313C1552.12 454.336 1554.14 454.336 1556.17 456.358 1558.19 458.38 1558.19 458.38 1560.21 460.403 1558.19 462.425 1556.17 464.448 1554.14 466.47 1552.12 466.47 1550.1 464.448 1548.08 462.425 1548.08 460.403 1546.06 458.38 1544.04 458.38 1546.06 456.358 1548.08 454.336 1550.1 452.313M1523.82 478.604 1588.51 456.358C1588.51 460.403 1590.53 462.425 1590.53 466.47 1592.55 468.492 1592.55 470.515 1594.57 474.56L1584.47 476.582 1582.44 466.47 1535.95 482.649 1539.99 490.739 1529.89 494.783C1529.89 490.739 1527.86 488.716 1527.86 486.694 1527.86 484.672 1525.84 480.627 1523.82 478.604M1539.99 496.806C1544.04 494.783 1550.1 494.783 1556.17 490.739L1570.32 486.694C1576.38 484.672 1582.44 482.649 1584.47 482.649L1588.51 488.716C1584.47 490.739 1578.4 492.761 1572.34 492.761L1558.19 498.828C1552.12 500.851 1546.06 502.873 1542.01 504.895L1539.99 496.806M1539.99 517.03C1544.04 517.03 1548.08 515.007 1554.14 512.985L1584.47 502.873C1590.53 500.851 1594.57 498.828 1598.62 496.806L1602.66 504.895C1596.6 506.918 1594.57 506.918 1590.53 508.94 1588.51 508.94 1586.49 510.963 1582.44 510.963L1592.55 539.276C1592.55 543.321 1594.57 545.343 1598.62 545.343 1600.64 543.321 1602.66 543.321 1604.68 543.321 1606.7 541.298 1606.7 541.298 1606.7 539.276 1608.72 537.254 1606.7 533.209 1606.7 529.164 1610.75 529.164 1612.77 529.164 1616.81 529.164 1618.83 539.276 1616.81 543.321 1614.79 545.343 1612.77 547.366 1610.75 549.388 1606.7 551.41 1604.68 551.41 1600.64 553.433 1594.57 553.433 1590.53 555.455 1586.49 551.41 1584.47 543.321L1574.36 512.985 1564.25 517.03C1566.27 525.119 1568.29 531.186 1568.29 537.254 1568.29 543.321 1568.29 547.366 1566.27 551.41 1564.25 555.455 1562.23 557.477 1560.21 561.522 1556.17 563.545 1554.14 567.589 1550.1 569.612 1548.08 567.589 1546.06 565.567 1542.01 563.545 1554.14 555.455 1560.21 549.388 1560.21 541.298 1560.21 535.231 1558.19 527.142 1556.17 521.074 1550.1 523.097 1544.04 523.097 1542.01 525.119L1539.99 517.03M1673.41 502.873C1673.41 504.895 1673.41 508.94 1673.41 510.963 1669.37 512.985 1663.31 515.007 1659.26 517.03 1653.2 521.074 1649.16 523.097 1645.11 525.119 1643.09 523.097 1641.07 519.052 1639.05 515.007 1643.09 515.007 1647.13 512.985 1653.2 510.963L1649.16 472.537C1643.09 472.537 1639.05 472.537 1635 474.56L1635 464.448C1639.05 464.448 1643.09 464.448 1647.13 464.448L1645.11 446.246C1645.11 444.224 1645.11 440.179 1643.09 434.112L1653.2 434.112C1653.2 438.157 1653.2 442.201 1655.22 446.246L1657.24 462.425C1659.26 462.425 1663.31 462.425 1667.35 460.403L1669.37 470.515C1665.33 470.515 1661.28 470.515 1657.24 470.515L1661.28 506.918C1665.33 504.895 1669.37 504.895 1673.41 502.873M1730.02 480.627C1732.04 474.56 1732.04 468.492 1732.04 460.403 1734.06 462.425 1738.1 462.425 1742.15 462.425 1742.15 468.492 1740.12 472.537 1740.12 478.604 1740.12 484.672 1738.1 488.716 1738.1 494.783 1736.08 498.828 1736.08 502.873 1734.06 506.918 1738.1 512.985 1742.15 517.03 1744.17 517.03 1746.19 519.052 1748.21 515.007 1748.21 506.918 1750.23 508.94 1754.27 510.963 1756.3 510.963 1756.3 517.03 1756.3 521.074 1754.27 525.119 1752.25 529.164 1750.23 531.186 1746.19 529.164 1742.15 529.164 1740.12 527.142 1738.1 525.119 1734.06 521.074 1732.04 519.052 1730.02 515.007 1725.97 519.052 1723.95 523.097 1721.93 525.119 1717.89 529.164 1713.84 533.209 1709.8 537.254 1707.78 533.209 1705.76 531.186 1701.71 529.164 1705.76 527.142 1709.8 523.097 1713.84 519.052 1717.89 517.03 1719.91 512.985 1723.95 506.918 1719.91 500.851 1715.87 490.739 1713.84 480.627 1711.82 470.515 1709.8 460.403 1707.78 452.313L1681.5 456.358 1683.52 472.537 1705.76 468.492C1705.76 472.537 1705.76 478.604 1705.76 484.672L1707.78 502.873C1709.8 508.94 1707.78 512.985 1705.76 515.007 1701.71 517.03 1699.69 519.052 1693.63 519.052 1693.63 515.007 1691.61 512.985 1689.59 508.94 1695.65 508.94 1697.67 506.918 1699.69 506.918 1699.69 504.895 1699.69 502.873 1699.69 500.851L1697.67 478.604 1685.54 478.604C1685.54 486.694 1685.54 490.739 1685.54 496.806 1685.54 502.873 1685.54 508.94 1683.52 515.007 1681.5 523.097 1679.48 531.186 1673.41 539.276 1671.39 537.254 1667.35 535.231 1663.31 535.231 1667.35 527.142 1671.39 521.074 1673.41 515.007 1675.43 508.94 1677.46 502.873 1677.46 496.806 1677.46 490.739 1675.43 482.649 1675.43 474.56 1673.41 464.448 1673.41 456.358 1671.39 448.268L1705.76 444.224C1705.76 438.157 1703.74 432.089 1701.71 424 1705.76 424 1709.8 424 1713.84 424 1713.84 428.045 1713.84 436.134 1715.87 444.224L1721.93 442.201C1730.02 442.201 1736.08 440.179 1742.15 440.179L1744.17 448.268C1738.1 450.291 1730.02 450.291 1721.93 450.291L1715.87 452.313C1717.89 458.38 1717.89 466.47 1719.91 474.56 1721.93 482.649 1723.95 490.739 1727.99 498.828 1730.02 492.761 1730.02 488.716 1730.02 480.627M1721.93 428.045C1723.95 426.022 1725.97 426.022 1730.02 424 1732.04 426.022 1736.08 430.067 1738.1 434.112 1734.06 436.134 1732.04 438.157 1730.02 438.157 1725.97 434.112 1723.95 432.089 1721.93 428.045M1843.22 426.022C1847.26 426.022 1849.29 424 1853.33 424 1855.35 428.045 1857.37 432.089 1857.37 438.157 1853.33 438.157 1851.31 440.179 1847.26 442.201 1847.26 436.134 1845.24 432.089 1843.22 426.022M1794.7 436.134C1802.79 438.157 1810.88 438.157 1818.96 440.179L1879.61 446.246C1887.69 448.268 1895.78 448.268 1903.87 450.291L1903.87 458.38C1895.78 458.38 1887.69 456.358 1879.61 456.358L1853.33 452.313 1851.31 468.492 1887.69 474.56C1885.67 480.627 1885.67 484.672 1885.67 492.761L1881.63 517.03C1881.63 523.097 1879.61 527.142 1875.57 527.142 1871.52 529.164 1865.46 529.164 1859.39 529.164 1859.39 525.119 1857.37 521.074 1857.37 517.03 1863.44 519.052 1867.48 519.052 1869.5 519.052 1871.52 519.052 1871.52 517.03 1871.52 512.985L1875.57 480.627 1851.31 478.604 1847.26 519.052C1845.24 525.119 1845.24 533.209 1843.22 539.276L1833.11 537.254C1833.11 531.186 1835.14 525.119 1835.14 517.03L1841.2 476.582 1814.92 474.56 1808.86 523.097 1798.75 523.097C1798.75 517.03 1800.77 510.963 1800.77 502.873L1802.79 484.672C1804.81 476.582 1804.81 470.515 1804.81 464.448L1841.2 468.492 1843.22 452.313 1816.94 448.268C1810.88 448.268 1802.79 446.246 1794.7 446.246L1794.7 436.134M1950.36 450.291C1954.4 452.313 1958.45 454.336 1962.49 454.336L1978.66 460.403C1980.68 460.403 1984.73 462.425 1988.77 462.425L1986.75 472.537C1982.71 470.515 1978.66 468.492 1976.64 468.492L1972.6 466.47 1966.53 488.716C1970.58 488.716 1974.62 490.739 1980.68 492.761L1978.66 500.851C1972.6 498.828 1966.53 496.806 1962.49 494.783L1954.4 521.074C1958.45 521.074 1962.49 521.074 1968.56 521.074 1966.53 525.119 1964.51 527.142 1964.51 529.164 1958.45 529.164 1950.36 529.164 1944.3 529.164 1938.23 529.164 1930.15 529.164 1924.08 529.164 1924.08 525.119 1924.08 521.074 1924.08 517.03 1928.12 519.052 1934.19 519.052 1946.32 521.074L1954.4 492.761C1950.36 490.739 1944.3 490.739 1940.25 488.716L1942.28 480.627C1948.34 482.649 1952.38 484.672 1956.43 484.672L1964.51 464.448 1960.47 462.425C1956.43 460.403 1952.38 460.403 1948.34 458.38L1950.36 450.291M1992.81 464.448C1998.88 466.47 2002.92 468.492 2008.99 470.515L2039.31 480.627C2043.35 480.627 2049.42 482.649 2053.46 484.672L2051.44 492.761C2047.39 490.739 2041.33 488.716 2037.29 486.694L2025.16 482.649C2023.14 488.716 2019.09 492.761 2017.07 498.828L1998.88 555.455C1994.84 561.522 1994.84 567.589 1992.81 573.657L1982.71 569.612C1984.73 565.567 1986.75 559.5 1988.77 553.433L2000.9 517.03C1994.84 523.097 1986.75 529.164 1980.68 535.231 1972.6 541.298 1966.53 543.321 1962.49 547.366 1960.47 543.321 1958.45 541.298 1954.4 537.254 1960.47 535.231 1966.53 533.209 1972.6 529.164 1976.64 527.142 1982.71 521.074 1988.77 517.03 1994.84 510.963 1998.88 504.895 2002.92 498.828 2008.99 492.761 2013.03 486.694 2015.05 480.627L2004.94 476.582C2000.9 476.582 1996.86 474.56 1990.79 472.537L1992.81 464.448M2017.07 515.007C2019.09 515.007 2023.14 515.007 2025.16 512.985 2027.18 519.052 2029.2 525.119 2029.2 529.164 2031.22 535.231 2033.24 543.321 2037.29 555.455 2033.24 557.477 2029.2 557.477 2025.16 559.5 2023.14 549.388 2023.14 541.298 2021.11 535.231 2019.09 527.142 2017.07 521.074 2017.07 515.007M2160.6 529.164C2162.62 529.164 2166.66 531.186 2170.71 531.186 2168.69 537.254 2168.69 541.298 2166.66 543.321L2174.75 549.388C2180.81 551.41 2186.88 555.455 2190.92 557.477L2186.88 563.545C2182.84 561.522 2176.77 557.477 2172.73 555.455L2142.41 537.254C2136.34 535.231 2130.28 531.186 2126.23 529.164L2130.28 523.097C2134.32 525.119 2138.36 529.164 2144.43 531.186L2156.56 539.276C2158.58 535.231 2158.58 533.209 2160.6 529.164M2134.32 541.298C2138.36 541.298 2140.38 541.298 2144.43 541.298 2144.43 545.343 2144.43 547.366 2144.43 551.41 2142.41 551.41 2138.36 551.41 2136.34 551.41 2136.34 547.366 2136.34 545.343 2134.32 541.298M2164.64 551.41C2166.66 555.455 2168.69 557.477 2170.71 561.522 2168.69 563.545 2164.64 565.567 2162.62 567.589L2170.71 571.634C2174.75 573.657 2180.81 575.679 2184.86 579.724L2180.81 585.791C2176.77 583.769 2172.73 579.724 2166.66 577.701L2128.26 555.455C2122.19 553.433 2118.15 551.41 2114.1 549.388L2118.15 541.298C2122.19 543.321 2126.23 547.366 2130.28 549.388L2154.54 561.522C2156.56 559.5 2158.58 557.477 2164.64 551.41M2120.17 567.589 2116.13 573.657 2154.54 595.903 2158.58 587.813 2120.17 567.589M2112.08 579.724 2108.04 585.791 2146.45 608.037 2150.49 601.97 2112.08 579.724M2128.26 620.172C2126.23 624.216 2126.23 626.239 2130.28 628.261L2138.36 632.306C2140.38 634.328 2142.41 634.328 2144.43 632.306 2146.45 630.283 2148.47 628.261 2150.49 626.239 2150.49 630.283 2152.51 632.306 2156.56 636.351 2150.49 642.418 2144.43 644.44 2142.41 644.44 2140.38 642.418 2138.36 642.418 2136.34 640.395L2124.21 634.328C2116.13 630.283 2116.13 626.239 2118.15 620.172L2126.23 603.992 2118.15 599.948C2112.08 608.037 2104 612.082 2097.93 612.082 2089.85 614.104 2081.76 612.082 2071.65 610.06 2071.65 606.015 2071.65 603.992 2071.65 599.948 2083.78 603.992 2091.87 603.992 2097.93 603.992 2101.98 601.97 2106.02 599.948 2110.06 595.903L2097.93 587.813C2101.98 581.746 2104 577.701 2106.02 571.634 2110.06 567.589 2112.08 561.522 2114.1 557.477L2168.69 585.791C2166.66 589.836 2162.62 595.903 2160.6 599.948 2156.56 606.015 2154.54 612.082 2150.49 618.149L2134.32 608.037 2128.26 620.172M2095.91 575.679C2093.89 577.701 2093.89 581.746 2091.87 583.769 2085.8 583.769 2079.74 581.746 2073.67 581.746 2067.61 579.724 2061.55 579.724 2057.5 579.724 2057.5 575.679 2057.5 571.634 2059.52 569.612 2061.55 569.612 2063.57 571.634 2065.59 571.634 2067.61 571.634 2069.63 571.634 2071.65 573.657L2091.87 537.254C2089.85 535.231 2085.8 533.209 2081.76 531.186L2085.8 525.119C2089.85 527.142 2093.89 529.164 2095.91 531.186L2104 515.007C2106.02 510.963 2108.04 508.94 2110.06 504.895L2118.15 508.94C2116.13 512.985 2114.1 517.03 2112.08 519.052L2104 535.231C2106.02 535.231 2110.06 537.254 2114.1 539.276L2108.04 547.366C2106.02 545.343 2101.98 543.321 2099.95 541.298L2081.76 573.657C2085.8 575.679 2091.87 575.679 2095.91 575.679M2223.27 634.328 2203.05 654.552 2213.16 664.664 2233.37 642.418 2223.27 634.328M2237.42 591.858C2243.48 597.925 2247.53 601.97 2249.55 603.992L2257.63 612.082C2261.68 616.127 2265.72 618.149 2267.74 620.172L2261.68 626.239C2259.65 624.216 2257.63 622.194 2253.59 618.149L2249.55 616.127C2243.48 620.172 2235.4 624.216 2227.31 628.261L2245.5 644.44C2241.46 646.463 2237.42 650.507 2235.4 654.552L2219.22 670.731C2215.18 674.776 2211.14 678.821 2207.09 684.888L2201.03 678.821 2207.09 670.731 2196.99 660.619 2184.86 674.776 2176.77 668.709C2184.86 662.642 2188.9 656.575 2192.94 652.53L2213.16 632.306C2209.12 632.306 2203.05 634.328 2199.01 634.328 2199.01 630.283 2199.01 628.261 2199.01 624.216 2205.07 624.216 2211.14 624.216 2215.18 622.194 2219.22 622.194 2223.27 620.172 2229.33 618.149 2233.37 616.127 2239.44 612.082 2243.48 608.037 2239.44 603.992 2235.4 601.97 2231.35 597.925L2237.42 591.858M2273.81 622.194C2277.85 626.239 2281.89 630.283 2283.91 632.306L2306.15 652.53C2310.19 656.575 2314.24 660.619 2318.28 662.642L2312.21 668.709C2308.17 666.686 2306.15 662.642 2304.13 660.619L2279.87 686.91C2283.91 690.955 2287.96 695 2292 697.022L2285.93 703.089C2283.91 699.045 2279.87 695 2273.81 690.955L2247.53 719.269C2243.48 723.313 2241.46 727.358 2237.42 731.403L2229.33 725.336C2235.4 719.269 2241.46 715.224 2243.48 713.201L2267.74 684.888 2255.61 674.776C2245.5 682.866 2237.42 690.955 2229.33 692.978 2223.27 697.022 2213.16 699.045 2201.03 701.067 2201.03 697.022 2199.01 692.978 2199.01 688.933 2207.09 690.955 2217.2 688.933 2225.29 686.91 2233.37 682.866 2241.46 676.798 2249.55 668.709 2245.5 666.686 2243.48 662.642 2239.44 658.597L2243.48 652.53C2247.53 656.575 2251.57 660.619 2253.59 662.642L2277.85 638.373C2273.81 634.328 2271.78 630.283 2267.74 628.261L2273.81 622.194M2283.91 642.418 2259.65 668.709 2273.81 680.843 2296.04 654.552 2283.91 642.418M2350.62 747.582C2350.62 749.604 2350.62 753.649 2350.62 757.694 2346.58 755.672 2342.54 753.649 2334.45 751.627 2328.39 749.604 2320.3 747.582 2314.24 743.537 2314.24 739.492 2316.26 737.47 2316.26 733.425 2320.3 735.448 2326.36 739.492 2332.43 741.515 2338.49 743.537 2346.58 745.56 2350.62 747.582M2360.73 771.851C2364.77 771.851 2368.82 773.873 2370.84 773.873 2370.84 775.895 2372.86 779.94 2372.86 788.03 2374.88 794.097 2374.88 802.187 2374.88 812.298 2372.86 812.298 2368.82 812.298 2364.77 812.298 2364.77 804.209 2364.77 798.142 2364.77 790.052 2362.75 783.985 2362.75 777.918 2360.73 771.851M2380.95 755.672C2378.92 753.649 2374.88 751.627 2372.86 749.604L2405.2 792.075C2401.16 794.097 2399.14 796.119 2397.12 798.142 2393.07 800.164 2391.05 802.187 2389.03 804.209L2380.95 796.119 2391.05 788.03 2344.56 723.313 2332.43 733.425 2326.36 725.336C2330.41 721.291 2332.43 719.269 2336.47 717.246 2338.49 715.224 2342.54 713.201 2344.56 711.179L2372.86 747.582C2374.88 743.537 2378.92 739.492 2380.95 735.448 2382.97 739.492 2387.01 741.515 2389.03 743.537 2387.01 747.582 2382.97 751.627 2380.95 755.672M2352.64 802.187C2348.6 804.209 2346.58 806.231 2342.54 808.254L2326.36 820.388C2322.32 824.433 2320.3 826.455 2322.32 828.478 2322.32 830.5 2324.34 832.522 2326.36 834.545 2328.39 836.567 2330.41 836.567 2330.41 836.567 2332.43 836.567 2336.47 834.545 2342.54 832.522 2340.52 836.567 2340.52 840.612 2342.54 844.657 2334.45 846.679 2330.41 848.701 2328.39 846.679 2324.34 846.679 2322.32 842.634 2316.26 836.567 2312.21 828.478 2310.19 824.433 2310.19 822.41 2312.21 820.388 2314.24 816.343 2318.28 814.321L2340.52 798.142 2328.39 781.963C2320.3 786.007 2314.24 788.03 2310.19 788.03 2304.13 788.03 2300.08 788.03 2294.02 788.03 2289.98 786.007 2285.93 786.007 2279.87 781.963 2275.83 779.94 2271.78 777.918 2265.72 773.873 2267.74 769.828 2269.76 765.784 2269.76 761.739 2275.83 765.784 2279.87 769.828 2283.91 771.851 2287.96 775.895 2292 775.895 2296.04 777.918 2302.11 777.918 2306.15 777.918 2310.19 777.918 2314.24 777.918 2318.28 775.895 2322.32 773.873L2312.21 759.716C2308.17 755.672 2306.15 753.649 2304.13 749.604L2310.19 745.56C2314.24 749.604 2316.26 753.649 2318.28 755.672L2328.39 769.828C2334.45 767.806 2338.49 763.761 2342.54 759.716 2344.56 763.761 2346.58 767.806 2348.6 771.851 2344.56 771.851 2342.54 771.851 2340.52 773.873 2338.49 775.895 2336.47 775.895 2334.45 777.918L2352.64 802.187M2411.27 868.925 2389.03 877.015 2397.12 895.216 2417.33 887.127 2411.27 868.925M2457.76 879.037C2455.74 881.06 2453.72 883.082 2451.7 887.127 2449.68 883.082 2443.61 874.992 2435.53 858.813L2417.33 866.903 2427.44 891.172C2421.38 893.194 2415.31 897.239 2409.25 899.261 2401.16 901.284 2397.12 905.328 2393.07 905.328L2382.97 879.037C2374.88 883.082 2368.82 883.082 2362.75 885.104 2356.69 885.104 2348.6 885.104 2342.54 885.104 2342.54 881.06 2344.56 877.015 2342.54 874.992 2352.64 874.992 2362.75 874.992 2370.84 872.97 2380.95 870.948 2391.05 866.903 2403.18 862.858 2413.29 858.813 2425.42 852.746 2437.55 846.679 2445.63 864.88 2453.72 874.992 2457.76 879.037M2480 933.642C2477.98 935.664 2473.94 937.687 2471.91 941.731 2469.89 937.687 2467.87 931.619 2465.85 925.552 2461.81 921.507 2457.76 913.418 2453.72 905.328L2433.51 913.418 2443.61 939.709C2445.63 943.754 2447.66 947.798 2449.68 953.866L2441.59 955.888C2439.57 951.843 2437.55 947.798 2435.53 941.731L2393.07 959.933C2387.01 961.955 2380.95 963.978 2374.88 966L2372.86 957.91C2376.9 955.888 2382.97 953.866 2389.03 951.843L2433.51 933.642 2425.42 915.44C2411.27 921.507 2401.16 923.53 2393.07 925.552 2384.99 925.552 2378.92 925.552 2372.86 925.552 2366.79 925.552 2360.73 923.53 2354.67 921.507 2356.69 919.485 2356.69 915.44 2356.69 911.395 2364.77 915.44 2370.84 917.463 2378.92 917.463 2387.01 917.463 2395.1 915.44 2405.2 913.418 2413.29 911.395 2421.38 907.351 2429.46 905.328 2437.55 901.284 2447.66 897.239 2457.76 893.194 2459.78 897.239 2461.81 905.328 2465.85 913.418 2471.91 921.507 2475.96 927.575 2480 933.642" fill="#FFFFFF" fill-rule="evenodd"/><path d="M1470 1656C1470 1656 1625.48 1501.98 1942.51 1427 1898.09 1465.5 1855.68 1493.88 1855.68 1506.04 1855.68 1516.17 2037.42 1471.58 2091.94 1469.56 2069.73 1489.82 2011.17 1499.96 2023.28 1512.11 2037.42 1526.3 2205.02 1501.98 2308 1431.05 2239.34 1518.19 1938.47 1570.88 1774.91 1585.07 1611.35 1599.26 1470 1656 1470 1656" fill="#006C3B" fill-rule="evenodd"/><path d="M1431.02 1686.4C1429 1676.26 1645.19 1605.3 1744.2 1601.25 1841.18 1597.19 2241.24 1530.29 2316 1435 2316 1477.58 2134.15 1572.86 2089.7 1585.03 2146.28 1589.08 2186.69 1574.89 2221.04 1570.84 2188.71 1597.19 2122.03 1639.77 2043.23 1643.82 1964.43 1647.88 1928.06 1651.93 1911.9 1658.01 1934.13 1672.21 2067.48 1672.21 2069.5 1680.32 2071.52 1688.42 1764.4 1731 1659.34 1708.7 1554.27 1686.4 1471.43 1698.56 1431.02 1686.4" fill="#006C3B" fill-rule="evenodd"/><path d="M1292 873.022 1635.56 873.022C1637.58 994.356 1639.61 1158.16 1639.61 1218.82 1639.61 1279.49 1692.15 1317.91 1760.86 1317.91 1829.58 1317.91 1870 1281.51 1870 1237.02 1872.02 1192.53 1874.04 871 1874.04 871L2251.96 873.022 2249.94 941.778 2144.85 941.778 2144.85 1099.51 2213.56 1101.53 2213.56 1174.33 2144.85 1174.33 2144.85 1323.98 2256 1323.98 2256 1392.73 2047.84 1392.73 2049.86 941.778 1987.21 941.778 1985.19 1253.2C1985.19 1253.2 1977.11 1400.82 1772.99 1408.91 1568.87 1417 1532.49 1291.62 1532.49 1275.44L1528.45 939.756 1463.78 939.756 1463.78 1326 1508.24 1323.98 1508.24 1392.73 1294.02 1392.73 1294.02 1323.98 1362.73 1326 1360.71 941.778 1292 941.778 1292 873.022" fill="#006C3B" fill-rule="evenodd"/><path d="M1111.65 1259 1113.67 1277.22 1053.04 1287.34 1049 1267.1 1111.65 1259M1113.67 1293.42 1117.71 1309.62 1089.42 1339.98 1123.78 1331.89 1127.82 1350.11 1067.19 1364.28 1063.15 1346.06 1091.44 1315.69 1057.08 1323.79 1053.04 1307.59 1113.67 1293.42M1087.4 1372.38 1095.48 1388.58C1093.46 1390.6 1091.44 1390.6 1089.42 1392.62 1087.4 1396.67 1087.4 1398.7 1089.42 1402.75 1089.42 1404.77 1091.44 1406.8 1093.46 1406.8 1095.48 1408.82 1095.48 1408.82 1097.5 1408.82 1099.52 1408.82 1099.52 1406.8 1101.54 1404.77 1101.54 1402.75 1101.54 1400.72 1101.54 1394.65 1099.52 1386.55 1101.54 1380.48 1101.54 1374.4 1103.57 1370.35 1107.61 1368.33 1111.65 1366.3 1115.69 1364.28 1117.71 1364.28 1121.75 1366.3 1123.78 1366.3 1127.82 1368.33 1129.84 1372.38 1133.88 1374.4 1135.9 1378.45 1137.92 1384.53 1139.94 1392.62 1139.94 1398.7 1139.94 1402.75 1137.92 1408.82 1133.88 1412.87 1127.82 1414.9L1121.75 1398.7C1123.78 1396.67 1125.8 1394.65 1125.8 1394.65 1127.82 1392.62 1127.82 1390.6 1125.8 1386.55 1125.8 1384.53 1123.78 1384.53 1123.78 1382.5 1121.75 1382.5 1119.73 1382.5 1119.73 1382.5 1117.71 1382.5 1117.71 1382.5 1117.71 1384.53 1117.71 1386.55 1117.71 1388.58 1117.71 1390.6 1117.71 1400.72 1117.71 1406.8 1117.71 1410.85 1117.71 1414.9 1115.69 1416.92 1113.67 1418.94 1111.65 1422.99 1109.63 1422.99 1105.59 1425.02 1103.57 1427.04 1099.52 1427.04 1095.48 1425.02 1091.44 1425.02 1087.4 1422.99 1085.38 1418.94 1081.34 1416.92 1079.31 1410.85 1077.29 1406.8 1073.25 1396.67 1073.25 1388.58 1075.27 1384.53 1079.31 1378.45 1083.36 1374.4 1087.4 1372.38M1146.01 1416.92 1170.26 1469.56 1156.11 1475.63 1148.03 1459.44 1105.59 1477.66 1097.5 1459.44 1139.94 1441.22 1131.86 1422.99 1146.01 1416.92M1174.3 1481.71 1184.4 1497.9 1127.82 1526.25 1119.73 1510.05 1174.3 1481.71M1186.42 1508.03 1218.76 1556.62 1204.61 1564.72 1194.51 1548.52 1156.11 1572.82 1146.01 1556.62 1184.4 1532.32 1174.3 1516.13 1186.42 1508.03M1247.05 1595.09 1257.16 1611.28 1228.86 1633.55C1226.84 1635.58 1222.8 1637.6 1220.78 1637.6 1216.74 1639.63 1212.7 1639.63 1210.68 1639.63 1206.63 1639.63 1204.61 1637.6 1200.57 1637.6 1198.55 1635.58 1194.51 1631.53 1190.47 1627.48 1190.47 1625.46 1188.45 1623.43 1186.42 1619.38 1184.4 1617.36 1182.38 1613.31 1182.38 1611.28 1182.38 1607.23 1182.38 1605.21 1182.38 1603.18 1182.38 1599.14 1184.4 1597.11 1186.42 1595.09 1188.45 1591.04 1190.47 1589.01 1192.49 1586.99L1220.78 1564.72 1232.91 1578.89 1204.61 1603.18C1200.57 1605.21 1198.55 1607.23 1198.55 1609.26 1198.55 1611.28 1200.57 1615.33 1202.59 1617.36 1204.61 1619.38 1206.63 1621.41 1208.66 1621.41 1210.68 1621.41 1214.72 1621.41 1216.74 1619.38L1247.05 1595.09M1263.22 1617.36 1301.62 1659.87 1291.51 1670 1277.37 1655.82 1245.03 1688.22 1230.89 1674.05 1265.24 1641.65 1251.1 1627.48 1263.22 1617.36M1307.68 1665.95 1346.08 1700.37 1338 1710.49 1313.74 1688.22 1307.68 1696.32 1329.91 1716.56 1321.83 1724.66 1299.6 1706.44 1291.51 1714.54 1315.77 1736.81 1307.68 1746.93 1267.26 1712.51 1307.68 1665.95M1352.14 1744.91C1358.21 1736.81 1364.27 1732.76 1372.35 1730.74 1380.44 1728.71 1388.52 1730.74 1396.6 1736.81 1404.69 1742.88 1410.75 1748.96 1410.75 1757.06 1412.77 1765.15 1410.75 1773.25 1404.69 1781.35 1400.65 1787.42 1396.6 1791.47 1392.56 1793.5 1386.5 1795.52 1382.46 1797.55 1376.39 1797.55 1372.35 1795.52 1366.29 1793.5 1360.23 1789.45 1354.16 1785.4 1350.12 1781.35 1348.1 1777.3 1346.08 1773.25 1344.06 1767.18 1346.08 1763.13 1346.08 1757.06 1348.1 1750.98 1352.14 1744.91M1368.31 1757.06C1364.27 1761.1 1362.25 1765.15 1362.25 1769.2 1364.27 1773.25 1364.27 1775.28 1368.31 1777.3 1372.35 1779.33 1374.37 1781.35 1378.41 1779.33 1382.46 1779.33 1386.5 1775.28 1388.52 1769.2 1392.56 1765.15 1394.58 1761.1 1394.58 1757.06 1392.56 1755.03 1392.56 1750.98 1388.52 1748.96 1384.48 1746.93 1382.46 1746.93 1378.41 1746.93 1374.37 1746.93 1372.35 1750.98 1368.31 1757.06M1432.98 1761.1 1473.4 1785.4 1467.34 1795.52 1443.09 1781.35 1437.02 1791.47 1457.23 1803.62 1451.17 1813.74 1430.96 1801.6 1418.83 1823.87 1402.67 1813.74 1432.98 1761.1M1536.05 1811.72 1554.24 1817.79 1542.11 1852.21C1540.09 1856.26 1538.07 1858.29 1536.05 1862.34 1534.03 1864.36 1532.01 1866.38 1527.97 1868.41 1525.94 1868.41 1521.9 1870.43 1519.88 1870.43 1515.84 1870.43 1511.8 1868.41 1505.73 1866.38 1503.71 1866.38 1499.67 1864.36 1497.65 1862.34 1493.61 1860.31 1491.59 1858.29 1489.57 1856.26 1487.55 1854.24 1485.53 1852.21 1485.53 1850.19 1483.5 1846.14 1483.5 1844.11 1483.5 1842.09 1485.53 1838.04 1485.53 1833.99 1485.53 1831.97L1499.67 1797.55 1517.86 1803.62 1503.71 1838.04C1501.69 1842.09 1501.69 1844.11 1503.71 1848.16 1503.71 1850.19 1505.73 1852.21 1509.78 1852.21 1513.82 1854.24 1515.84 1854.24 1517.86 1852.21 1519.88 1852.21 1521.9 1850.19 1523.92 1846.14L1536.05 1811.72M1550.2 1882.58 1566.36 1823.87 1596.68 1831.97C1602.74 1831.97 1606.78 1833.99 1610.82 1836.02 1612.84 1838.04 1614.87 1840.06 1614.87 1844.11 1616.89 1846.14 1616.89 1850.19 1616.89 1854.24 1614.87 1856.26 1612.84 1860.31 1610.82 1862.34 1608.8 1864.36 1606.78 1866.38 1604.76 1866.38 1602.74 1866.38 1600.72 1866.38 1596.68 1866.38 1598.7 1868.41 1600.72 1868.41 1600.72 1870.43 1602.74 1870.43 1602.74 1872.46 1602.74 1874.48 1604.76 1876.51 1604.76 1878.53 1604.76 1878.53L1608.8 1898.78 1588.59 1892.7 1582.53 1872.46C1582.53 1868.41 1582.53 1866.38 1580.51 1866.38 1580.51 1864.36 1578.49 1864.36 1576.47 1864.36L1576.47 1864.36 1568.38 1886.63 1550.2 1882.58M1578.49 1852.21 1586.57 1854.24C1586.57 1854.24 1588.59 1854.24 1590.61 1854.24 1592.64 1854.24 1594.66 1854.24 1594.66 1854.24 1596.68 1852.21 1596.68 1852.21 1596.68 1850.19 1596.68 1848.16 1596.68 1846.14 1596.68 1846.14 1594.66 1844.11 1592.64 1842.09 1590.61 1842.09L1582.53 1840.06 1578.49 1852.21M1629.01 1840.06 1665.39 1846.14C1671.45 1848.16 1675.49 1850.19 1677.52 1852.21 1681.56 1856.26 1681.56 1860.31 1681.56 1864.36 1681.56 1868.41 1679.54 1870.43 1675.49 1872.46 1675.49 1874.48 1671.45 1876.51 1669.43 1876.51 1673.47 1878.53 1675.49 1880.56 1677.52 1882.58 1679.54 1886.63 1679.54 1888.66 1679.54 1892.7 1679.54 1896.75 1677.52 1898.78 1675.49 1900.8 1673.47 1904.85 1671.45 1904.85 1669.43 1906.88 1667.41 1906.88 1665.39 1906.88 1661.35 1906.88 1657.31 1906.88 1655.28 1906.88 1653.26 1906.88L1620.93 1902.83 1629.01 1840.06M1645.18 1868.41 1653.26 1868.41C1657.31 1870.43 1659.33 1870.43 1659.33 1868.41 1661.35 1868.41 1661.35 1866.38 1661.35 1864.36 1663.37 1862.34 1661.35 1862.34 1661.35 1860.31 1659.33 1858.29 1657.31 1858.29 1655.28 1858.29L1647.2 1856.26 1645.18 1868.41M1641.14 1892.7 1651.24 1892.7C1655.28 1894.73 1657.31 1894.73 1657.31 1892.7 1659.33 1892.7 1661.35 1890.68 1661.35 1888.66 1661.35 1886.63 1661.35 1884.61 1659.33 1884.61 1659.33 1882.58 1657.31 1882.58 1653.26 1880.56L1643.16 1880.56 1641.14 1892.7M1730.06 1904.85 1707.83 1904.85 1703.79 1914.98 1683.58 1912.95 1709.85 1852.21 1732.08 1854.24 1752.29 1917 1732.08 1914.98 1730.06 1904.85M1726.02 1892.7 1719.96 1868.41 1711.87 1890.68 1726.02 1892.7M1762.4 1856.26 1780.58 1854.24 1804.84 1888.66 1802.81 1854.24 1821 1854.24 1823.02 1914.98 1804.84 1917 1780.58 1882.58 1780.58 1917 1764.42 1917 1762.4 1856.26M1853.34 1850.19 1903.86 1842.09 1905.88 1856.26 1875.57 1860.31 1877.59 1870.43 1905.88 1866.38 1907.9 1878.53 1879.61 1882.58 1881.63 1894.73 1913.97 1888.66 1915.99 1902.83 1863.44 1910.93 1853.34 1850.19M1911.95 1842.09 1930.13 1836.02 1960.45 1864.36 1952.36 1829.94 1968.53 1825.89 1984.7 1884.61 1968.53 1890.68 1936.2 1864.36 1946.3 1896.75 1928.11 1900.8 1911.95 1842.09M1972.57 1825.89 1990.76 1819.82 2021.08 1856.26 2017.03 1809.7 2035.22 1801.6 2035.22 1868.41 2017.03 1874.48 1972.57 1825.89M2041.29 1797.55 2059.47 1791.47 2083.73 1848.16 2065.54 1856.26 2041.29 1797.55M2097.87 1840.06 2069.58 1787.42 2095.85 1771.23C2101.91 1769.2 2105.96 1767.18 2110 1765.15 2112.02 1765.15 2116.06 1765.15 2118.08 1767.18 2122.12 1769.2 2124.15 1771.23 2126.17 1775.28 2128.19 1777.3 2128.19 1781.35 2128.19 1783.38 2128.19 1785.4 2128.19 1789.45 2126.17 1791.47 2124.15 1793.5 2124.15 1795.52 2122.12 1797.55 2124.15 1797.55 2126.17 1795.52 2126.17 1797.55 2128.19 1797.55 2128.19 1797.55 2130.21 1797.55 2132.23 1799.57 2134.25 1799.57 2134.25 1799.57L2152.44 1811.72 2132.23 1821.84 2114.04 1809.7C2112.02 1807.67 2110 1807.67 2110 1807.67 2107.98 1807.67 2105.96 1807.67 2103.94 1809.7L2103.94 1809.7 2116.06 1831.97 2097.87 1840.06M2097.87 1799.57 2103.94 1795.52C2105.96 1795.52 2105.96 1793.5 2107.98 1791.47 2110 1791.47 2110 1789.45 2110 1789.45 2110 1787.42 2110 1787.42 2110 1785.4 2107.98 1783.38 2107.98 1783.38 2105.96 1781.35 2103.94 1781.35 2101.91 1783.38 2097.87 1783.38L2091.81 1787.42 2097.87 1799.57M2138.29 1783.38C2132.23 1775.28 2130.21 1767.18 2132.23 1759.08 2134.25 1750.98 2138.29 1744.91 2146.38 1738.83 2154.46 1732.76 2162.54 1730.74 2170.63 1732.76 2178.71 1732.76 2184.77 1738.83 2190.84 1746.93 2194.88 1753.01 2196.9 1757.06 2198.92 1763.13 2198.92 1769.2 2198.92 1773.25 2194.88 1777.3 2192.86 1783.38 2188.82 1787.42 2184.77 1791.47 2178.71 1795.52 2172.65 1797.55 2168.61 1797.55 2162.54 1799.57 2158.5 1797.55 2152.44 1795.52 2148.4 1793.5 2142.33 1789.45 2138.29 1783.38M2154.46 1773.25C2158.5 1777.3 2162.54 1781.35 2164.56 1781.35 2168.61 1783.38 2172.65 1781.35 2174.67 1779.33 2178.71 1777.3 2180.73 1775.28 2180.73 1771.23 2180.73 1767.18 2178.71 1763.13 2174.67 1757.06 2172.65 1753.01 2168.61 1748.96 2164.56 1748.96 2160.52 1748.96 2158.5 1748.96 2154.46 1750.98 2152.44 1753.01 2150.42 1757.06 2150.42 1759.08 2148.4 1763.13 2150.42 1767.18 2154.46 1773.25M2180.73 1718.59 2192.86 1706.44 2233.28 1716.56 2211.05 1692.27 2225.19 1680.12 2265.61 1726.69 2251.47 1738.83 2211.05 1726.69 2233.28 1753.01 2219.13 1765.15 2180.73 1718.59M2231.26 1674.05 2249.44 1655.82 2283.8 1674.05 2263.59 1641.65 2279.76 1623.43 2324.22 1665.95 2314.11 1678.1 2279.76 1645.7 2306.03 1686.19 2295.93 1696.32 2253.49 1672.02 2287.84 1704.42 2275.72 1716.56 2231.26 1674.05M2285.82 1615.33 2318.16 1574.84 2328.26 1582.94 2308.05 1609.26 2316.14 1615.33 2334.32 1591.04 2344.43 1599.14 2326.24 1623.43 2334.32 1629.5 2356.55 1605.21 2366.66 1613.31 2334.32 1653.8 2285.82 1615.33M2322.2 1568.77 2330.28 1554.59 2372.72 1552.57 2344.43 1534.35 2354.53 1518.15 2405.06 1552.57 2394.95 1566.74 2354.53 1568.77 2382.83 1586.99 2372.72 1603.18 2322.2 1568.77M2354.53 1514.1 2380.81 1463.49 2394.95 1469.56 2386.87 1487.78 2427.29 1508.03 2419.2 1526.25 2376.76 1503.98 2368.68 1522.2 2354.53 1514.1M2441.43 1410.85 2449.52 1396.67C2455.58 1398.7 2457.6 1400.72 2459.62 1404.77 2461.64 1408.82 2463.66 1410.85 2463.66 1414.9 2463.66 1418.94 2463.66 1422.99 2461.64 1429.07 2459.62 1435.14 2457.6 1441.22 2453.56 1443.24 2451.54 1447.29 2447.5 1449.31 2441.43 1451.34 2435.37 1453.36 2429.31 1451.34 2421.22 1449.31 2411.12 1447.29 2405.06 1441.22 2401.02 1435.14 2398.99 1427.04 2398.99 1418.94 2401.02 1410.85 2403.04 1402.75 2407.08 1396.67 2411.12 1394.65 2415.16 1390.6 2421.22 1388.58 2427.29 1388.58L2427.29 1406.8C2425.27 1406.8 2423.25 1406.8 2421.22 1406.8 2419.2 1406.8 2419.2 1408.82 2417.18 1408.82 2417.18 1410.85 2415.16 1412.87 2415.16 1414.9 2413.14 1418.94 2413.14 1422.99 2417.18 1425.02 2419.2 1427.04 2421.22 1429.07 2427.29 1431.09 2433.35 1433.12 2439.41 1433.12 2441.43 1433.12 2445.48 1431.09 2447.5 1429.07 2447.5 1425.02 2449.52 1422.99 2449.52 1418.94 2447.5 1416.92 2445.48 1414.9 2443.46 1412.87 2441.43 1410.85M2473.77 1348.08 2467.71 1368.33 2477.81 1374.4 2471.75 1392.62 2419.2 1354.16 2425.27 1333.91 2489.94 1329.86 2485.9 1348.08 2473.77 1348.08M2459.62 1348.08 2437.39 1348.08 2457.6 1362.26 2459.62 1348.08M2469.73 1315.69 2471.75 1297.47C2473.77 1297.47 2477.81 1297.47 2477.81 1297.47 2481.85 1295.44 2483.87 1293.42 2483.87 1289.37 2483.87 1285.32 2483.87 1283.3 2483.87 1283.3 2481.85 1281.27 2479.83 1279.25 2479.83 1279.25 2477.81 1279.25 2475.79 1279.25 2473.77 1281.27 2473.77 1281.27 2471.75 1285.32 2469.73 1289.37 2465.69 1297.47 2461.64 1303.54 2459.62 1305.57 2455.58 1309.62 2451.54 1309.62 2445.48 1309.62 2443.46 1309.62 2439.41 1307.59 2437.39 1305.57 2435.37 1303.54 2433.35 1299.49 2433.35 1295.44 2431.33 1291.39 2431.33 1287.34 2433.35 1281.27 2433.35 1273.17 2437.39 1267.1 2439.41 1263.05 2443.46 1259 2449.52 1259 2455.58 1259L2453.56 1277.22C2449.52 1277.22 2447.5 1277.22 2447.5 1279.25 2445.48 1279.25 2443.46 1281.27 2443.46 1283.3 2443.46 1287.34 2443.46 1287.34 2443.46 1289.37 2445.48 1291.39 2445.48 1291.39 2447.5 1291.39 2447.5 1291.39 2449.52 1291.39 2449.52 1291.39 2451.54 1289.37 2451.54 1287.34 2453.56 1285.32 2457.6 1277.22 2459.62 1271.15 2461.64 1269.12 2463.66 1265.07 2467.71 1263.05 2469.73 1261.02 2473.77 1261.02 2475.79 1261.02 2479.83 1261.02 2483.87 1261.02 2485.9 1263.05 2489.94 1265.07 2491.96 1269.12 2493.98 1271.15 2496 1275.2 2496 1281.27 2496 1285.32 2496 1291.39 2493.98 1301.52 2489.94 1307.59 2485.9 1311.64 2481.85 1315.69 2475.79 1315.69 2469.73 1315.69" fill="#FFFFFF" fill-rule="evenodd"/></g></svg>